<?xml version="1.0" encoding="UTF-8"?>
<svg version="1.1" xmlns="http://www.w3.org/2000/svg" width="150" height="150">
<path d="M0 0 C0.89847656 -0.020625 1.79695313 -0.04125 2.72265625 -0.0625 C7.6941592 -0.09187372 11.08188873 0.00896343 15.125 3.25 C16.125 4.25 16.125 4.25 16.3125 7.5 C16.13601911 11.0296179 15.51072372 13.07324206 14.125 16.25 C14.81207031 16.98605469 15.49914062 17.72210938 16.20703125 18.48046875 C17.11741501 19.46593571 18.02755854 20.45162462 18.9375 21.4375 C19.83082031 22.40042969 20.72414062 23.36335938 21.64453125 24.35546875 C25.83693465 29.24770642 25.83693465 29.24770642 27.125 32.25 C26.23754761 36.83517071 23.61702842 38.8265426 20 41.5625 C19.08992188 42.25988281 18.17984375 42.95726562 17.2421875 43.67578125 C16.54351562 44.19527344 15.84484375 44.71476562 15.125 45.25 C16.39507214 44.2906581 17.66608919 43.33256706 18.9375 42.375 C19.64519531 41.84132812 20.35289063 41.30765625 21.08203125 40.7578125 C25.81256423 37.26644399 25.81256423 37.26644399 28.5 37.125 C32.75590284 38.94895836 34.20744047 42.1596214 36.125 46.25 C41.31880524 59.35255412 41.55664713 70.16466829 36.125 83.25 C34.32575044 86.42282301 32.35881762 89.36837527 30.125 92.25 C30.785 92.91 31.445 93.57 32.125 94.25 C32.5625 97.625 32.5625 97.625 32.125 101.25 C29.625 103.6875 29.625 103.6875 27.125 105.25 C28.383125 105.53875 29.64125 105.8275 30.9375 106.125 C33.9789399 106.82303539 35.43169878 107.45446585 38.125 109.25 C38.55859375 112.18359375 38.55859375 112.18359375 38.5625 115.6875 C38.58183594 116.84121094 38.60117188 117.99492187 38.62109375 119.18359375 C38.125 122.25 38.125 122.25 36.50854492 123.91738892 C33.35966888 125.67788735 31.09437948 125.63094083 27.4921875 125.63818359 C26.83478577 125.64344055 26.17738403 125.64869751 25.50006104 125.65411377 C23.3331303 125.66728708 21.16693784 125.65858585 19 125.6484375 C17.49072123 125.65045902 15.9814434 125.65337111 14.47216797 125.65713501 C11.31142869 125.66155472 8.15094402 125.6551389 4.99023438 125.64111328 C0.94147474 125.62402132 -3.10668827 125.63386443 -7.15542603 125.65183067 C-10.27128585 125.66267821 -13.38700454 125.65921778 -16.50286865 125.6514473 C-17.99558584 125.64944796 -19.48831591 125.65189523 -20.98101807 125.65888596 C-23.06841915 125.66651674 -25.15485797 125.65487507 -27.2421875 125.63818359 C-28.42925293 125.63579681 -29.61631836 125.63341003 -30.83935547 125.63095093 C-34.15608894 125.21472542 -35.55859618 124.62977433 -37.875 122.25 C-38.44140625 119.21875 -38.44140625 119.21875 -38.4375 115.75 C-38.45941406 114.6053125 -38.48132812 113.460625 -38.50390625 112.28125 C-37.875 109.25 -37.875 109.25 -35.578125 107.35546875 C-32.21104504 105.97846929 -29.47804066 106.03805643 -25.875 106.25 C-25.875 105.59 -25.875 104.93 -25.875 104.25 C-26.803125 104.064375 -26.803125 104.064375 -27.75 103.875 C-29.875 103.25 -29.875 103.25 -31.875 101.25 C-32.19037716 96.91356399 -32.32397847 94.92346771 -29.875 91.25 C-30.98875 90.1053125 -30.98875 90.1053125 -32.125 88.9375 C-38.72538049 80.89328627 -40.1638209 70.37028437 -39.875 60.25 C-37.35617634 43.22007722 -25.38203011 28.39988095 -13.875 16.25 C-14.36033203 15.12464844 -14.36033203 15.12464844 -14.85546875 13.9765625 C-16.14123518 10.53799941 -16.21242051 7.89414151 -15.875 4.25 C-12.19642339 -1.00510944 -5.72950597 0.03260032 0 0 Z M12.125 46.25 C8.825 48.89 5.525 51.53 2.125 54.25 C2.455 54.91 2.785 55.57 3.125 56.25 C6.755 53.28 10.385 50.31 14.125 47.25 C13.465 46.92 12.805 46.59 12.125 46.25 Z " fill="#282828" transform="translate(74.875,15.75)"/>
<path d="M0 0 C3.7042479 0.63108084 5.52175312 2.32871361 7.6953125 5.26660156 C8.13359375 5.95238281 8.571875 6.63816406 9.0234375 7.34472656 C9.89742187 8.40433594 9.89742187 8.40433594 10.7890625 9.48535156 C13.912516 13.28414636 13.912516 13.28414636 15.0234375 15.34472656 C13.90377509 18.7037138 13.20758908 19.22995311 10.453125 21.27050781 C9.7209375 21.82029297 8.98875 22.37007812 8.234375 22.93652344 C7.07808594 23.78827148 7.07808594 23.78827148 5.8984375 24.65722656 C0.4376533 28.71986171 -4.85691199 32.85654488 -9.9765625 37.34472656 C-8.92781252 39.9666015 -8.32724937 41.13844017 -5.8515625 42.59472656 C-5.2328125 42.84222656 -4.6140625 43.08972656 -3.9765625 43.34472656 C-1.2665388 41.2844403 1.44114104 39.22109483 4.1484375 37.15722656 C4.90898438 36.57908203 5.66953125 36.0009375 6.453125 35.40527344 C10.72812193 32.14374561 14.9227569 28.8230994 19.0234375 25.34472656 C23.97352178 27.37446823 25.0138752 30.64092809 27.0234375 35.34472656 C27.4359375 36.27285156 27.8484375 37.20097656 28.2734375 38.15722656 C30.86986103 49.19202657 28.03583931 59.22692086 22.65283203 68.96704102 C20.77711151 71.72951611 19.73817822 73.09948028 16.55429077 74.19195557 C13.50073696 74.5208905 10.56294709 74.56641233 7.4921875 74.50488281 C6.38290894 74.51112167 5.27363037 74.51736053 4.1307373 74.52378845 C1.79068479 74.52552717 -0.54947826 74.50481709 -2.88916016 74.46313477 C-6.46684535 74.407378 -10.03560243 74.44226994 -13.61328125 74.48730469 C-15.89065424 74.47776257 -18.16801253 74.46296469 -20.4453125 74.44238281 C-21.51108521 74.45543961 -22.57685791 74.4684964 -23.67492676 74.48194885 C-30.92563392 74.27595788 -30.92563392 74.27595788 -33.97232056 71.57627869 C-35.50556909 69.56068026 -36.77734092 67.57213623 -37.9765625 65.34472656 C-38.45867188 64.5390625 -38.94078125 63.73339844 -39.4375 62.90332031 C-43.31704098 53.90079574 -43.47963573 43.81130094 -40.3515625 34.53222656 C-39.60520294 32.78302649 -38.81435332 31.05202268 -37.9765625 29.34472656 C-37.59886719 28.57386719 -37.22117187 27.80300781 -36.83203125 27.00878906 C-32.09679491 18.39666739 -25.41663328 10.73337725 -18.9765625 3.34472656 C-18.26681274 2.5124353 -18.26681274 2.5124353 -17.54272461 1.66333008 C-13.39596133 -1.82796664 -5.11757324 -0.4286183 0 0 Z " fill="#5A5756" transform="translate(81.9765625,32.6552734375)"/>
<path d="M0 0 C22.44 0 44.88 0 68 0 C68 2.97 68 5.94 68 9 C45.56 9 23.12 9 0 9 C0 6.03 0 3.06 0 0 Z " fill="#5E5B5A" transform="translate(41,127)"/>
<path d="M0 0 C1.03454819 -0.00637985 2.06909637 -0.0127597 3.13499451 -0.01933289 C4.26099564 -0.02044571 5.38699677 -0.02155853 6.54711914 -0.02270508 C7.69515518 -0.02603348 8.84319122 -0.02936188 10.02601624 -0.03279114 C12.45972288 -0.03786534 14.89343651 -0.04019931 17.32714844 -0.04003906 C21.06269731 -0.04222487 24.79795074 -0.06037379 28.53344727 -0.0793457 C30.89217021 -0.08227958 33.25089456 -0.08426441 35.60961914 -0.08520508 C36.73359604 -0.09239059 37.85757294 -0.09957611 39.01560974 -0.10697937 C40.05331009 -0.10390274 41.09101044 -0.10082611 42.16015625 -0.09765625 C43.07647324 -0.09908127 43.99279022 -0.10050629 44.93687439 -0.10197449 C47.14477539 0.14526367 47.14477539 0.14526367 49.14477539 2.14526367 C48.6090611 5.68097796 48.6090611 5.68097796 47.14477539 7.14526367 C45.52897531 7.24908956 43.90866915 7.2837861 42.28955078 7.29052734 C41.25500259 7.2969072 40.22045441 7.30328705 39.15455627 7.30986023 C37.46555458 7.31152946 37.46555458 7.31152946 35.74243164 7.31323242 C34.5943956 7.31656082 33.44635956 7.31988922 32.26353455 7.32331848 C29.8298279 7.32839269 27.39611427 7.33072666 24.96240234 7.33056641 C21.22685347 7.33275222 17.49160004 7.35090113 13.75610352 7.36987305 C11.39738057 7.37280692 9.03865622 7.37479176 6.67993164 7.37573242 C5.55595474 7.38291794 4.43197784 7.39010345 3.27394104 7.39750671 C2.23624069 7.39443008 1.19854034 7.39135345 0.12939453 7.38818359 C-0.78692245 7.38960861 -1.70323944 7.39103363 -2.64732361 7.39250183 C-4.85522461 7.14526367 -4.85522461 7.14526367 -6.85522461 5.14526367 C-6.0954733 0.13090504 -4.82372041 0.02008369 0 0 Z " fill="#5B5857" transform="translate(53.855224609375,109.854736328125)"/>
<path d="M0 0 C1.39895508 -0.01836914 1.39895508 -0.01836914 2.82617188 -0.03710938 C4.16325195 -0.04000977 4.16325195 -0.04000977 5.52734375 -0.04296875 C6.348396 -0.04707764 7.16944824 -0.05118652 8.01538086 -0.05541992 C10.0625 0.1875 10.0625 0.1875 12.0625 2.1875 C11.60795455 7.64204545 11.60795455 7.64204545 9.0625 10.1875 C6.10623167 10.68198444 3.11800861 10.60403729 0.125 10.625 C-1.1115332 10.67430664 -1.1115332 10.67430664 -2.37304688 10.72460938 C-4.66989345 10.74513359 -6.69768743 10.70049118 -8.9375 10.1875 C-11.01953125 7.80078125 -11.01953125 7.80078125 -11.9375 5.1875 C-11.16358305 -1.77775254 -5.71540142 0.00393352 0 0 Z " fill="#5A5756" transform="translate(74.9375,19.8125)"/>
<path d="M0 0 C4.95008428 2.02974167 5.9904377 5.29620153 8 10 C8.4125 10.928125 8.825 11.85625 9.25 12.8125 C11.40555444 21.97360637 9.92209071 30.49995058 6 39 C4.36328125 40.84375 4.36328125 40.84375 3 42 C3.165 40.783125 3.33 39.56625 3.5 38.3125 C4.66392479 27.39214681 5.01473032 15.84824017 -0.125 5.80078125 C-1 4 -1 4 -0.625 1.75 C-0.41875 1.1725 -0.2125 0.595 0 0 Z " fill="#696766" transform="translate(101,58)"/>
<path d="M0 0 C14.19 0 28.38 0 43 0 C43 0.99 43 1.98 43 3 C28.48 3 13.96 3 -1 3 C-0.67 2.01 -0.34 1.02 0 0 Z " fill="#504D4D" transform="translate(54,120)"/>
<path d="M0 0 C1.79133978 -0.05391993 3.58313899 -0.09275571 5.375 -0.125 C6.37273437 -0.14820312 7.37046875 -0.17140625 8.3984375 -0.1953125 C11 0 11 0 13 2 C13 3.32 13 4.64 13 6 C7.32822615 6.45374191 4.4024732 5.65083143 0 2 C0 1.34 0 0.68 0 0 Z " fill="#6A6867" transform="translate(74,20)"/>
<path d="M0 0 C4.40408447 0.44143504 6.34379198 3.14115649 9.1875 6.3125 C10.06792969 7.27800781 10.94835937 8.24351563 11.85546875 9.23828125 C13.75658896 11.68653623 14.63499906 12.98695305 15 16 C11.63490713 15.43825095 10.26584866 14.57089671 8.203125 11.875 C7.71972656 11.25109375 7.23632812 10.6271875 6.73828125 9.984375 C6.24714844 9.32953125 5.75601563 8.6746875 5.25 8 C4.74339844 7.34515625 4.23679687 6.6903125 3.71484375 6.015625 C0 1.16930593 0 1.16930593 0 0 Z " fill="#686665" transform="translate(82,34)"/>
</svg>
