<?xml version="1.0" encoding="UTF-8"?>
<svg version="1.1" xmlns="http://www.w3.org/2000/svg" width="150" height="150">
<path d="M0 0 C2 3 2 3 1.6875 5.5625 C1 8 1 8 0 10 C2.475 10.495 2.475 10.495 5 11 C5 16.28 5 21.56 5 27 C3.35 27 1.7 27 0 27 C0.66 27.99 1.32 28.98 2 30 C2 30.99 2 31.98 2 33 C2.639375 33.309375 3.27875 33.61875 3.9375 33.9375 C6 35 6 35 7 36 C7.04080783 37.99958364 7.04254356 40.00045254 7 42 C7.73863281 42.02578125 8.47726563 42.0515625 9.23828125 42.078125 C18.09099476 42.57306705 25.84523269 44.06722307 33.1875 49.25 C35.59676477 52.9054362 35.62299989 55.79108479 35 60 C33.65763651 64.21760295 31.93767081 68.24986427 30.1875 72.3125 C25.02304129 83.82647893 25.02304129 83.82647893 22 96 C23.76440022 98.83132801 23.76440022 98.83132801 26 101 C25.93353155 104.32342272 25.63865125 106.19474408 23.5625 108.8125 C22 110 22 110 20 111 C20.99 111.391875 21.98 111.78375 23 112.1875 C24.6484375 113.2578125 24.6484375 113.2578125 26 115 C26.77637539 119.39946054 26.8804975 123.61466503 26 128 C23.68083911 130.37624162 22.28117336 130.96471482 18.96435547 131.38095093 C17.77729004 131.38333771 16.59022461 131.38572449 15.3671875 131.38818359 C14.70978577 131.39344055 14.05238403 131.39869751 13.37506104 131.40411377 C11.2081303 131.41728708 9.04193784 131.40858585 6.875 131.3984375 C5.36572123 131.40045902 3.8564434 131.40337111 2.34716797 131.40713501 C-0.81357131 131.41155472 -3.97405598 131.4051389 -7.13476562 131.39111328 C-11.18352526 131.37402132 -15.23168827 131.38386443 -19.28042603 131.40183067 C-22.39628585 131.41267821 -25.51200454 131.40921778 -28.62786865 131.4014473 C-30.12058584 131.39944796 -31.61331591 131.40189523 -33.10601807 131.40888596 C-35.19341915 131.41651674 -37.27985797 131.40487507 -39.3671875 131.38818359 C-40.55425293 131.38579681 -41.74131836 131.38341003 -42.96435547 131.38095093 C-46.28117336 130.96471482 -47.68083911 130.37624162 -50 128 C-50.8804975 123.61466503 -50.77637539 119.39946054 -50 115 C-48.13872908 112.60078951 -46.89096125 112.14433883 -44 111 C-44.928125 110.62875 -44.928125 110.62875 -45.875 110.25 C-48.46561326 108.72610985 -49.12444207 107.86546233 -50 105 C-49.74025696 100.75753028 -49.10605509 98.82140314 -46 96 C-48.88723373 86.06125311 -52.24313819 76.48950037 -56.40820312 67.00488281 C-58.63785342 61.72176709 -59.55186542 57.74441733 -59 52 C-55.3215933 46.41896915 -49.23550289 44.58664196 -43 43 C-39.00098112 42.44586343 -35.03365756 42.14079084 -31 42 C-31.02835938 41.04867187 -31.05671875 40.09734375 -31.0859375 39.1171875 C-31 36 -31 36 -29.625 34.125 C-28 33 -28 33 -26 33 C-25.855625 32.38125 -25.71125 31.7625 -25.5625 31.125 C-25 29 -25 29 -24 27 C-25.65 27 -27.3 27 -29 27 C-29 21.72 -29 16.44 -29 11 C-27.35 10.67 -25.7 10.34 -24 10 C-24.350625 9.443125 -24.70125 8.88625 -25.0625 8.3125 C-26.24408113 5.3979332 -26.00932746 3.95034182 -25 1 C-17.91311335 -3.7245911 -7.72199026 -3.05662114 0 0 Z " fill="#292929" transform="translate(87,10)"/>
<path d="M0 0 C2.84558548 0.02360977 5.69022969 0.02053782 8.53588867 0.01391602 C41.14295279 0.06238638 41.14295279 0.06238638 48.41674805 7.33618164 C48.05321113 14.00102508 46.02266346 19.24751763 43.41674805 25.33618164 C42.38775584 27.83323864 41.36708662 30.33263141 40.35424805 32.83618164 C39.86827148 34.02211914 39.38229492 35.20805664 38.8815918 36.42993164 C37.17215538 40.98842875 35.81569463 45.67302636 34.41674805 50.33618164 C15.27674805 50.33618164 -3.86325195 50.33618164 -23.58325195 50.33618164 C-25.56325195 44.39618164 -27.54325195 38.45618164 -29.58325195 32.33618164 C-31.33911077 27.85844804 -33.14578882 23.42779978 -35.0324707 19.00610352 C-38.26653732 11.20813207 -38.26653732 11.20813207 -37.58325195 7.33618164 C-28.35488354 -1.62851911 -11.87353425 -0.10516588 0 0 Z " fill="#5D5A59" transform="translate(69.583251953125,55.663818359375)"/>
<path d="M0 0 C0 3.78145872 -1.36674565 6.64122315 -2.8125 10.0625 C-5.31079686 15.97822022 -7.13676375 21.78921249 -9 28 C-28.14 28 -47.28 28 -67 28 C-68.98 22.06 -70.96 16.12 -73 10 C-73.66 8.35 -74.32 6.7 -75 5 C-74.67 4.01 -74.34 3.02 -74 2 C-72.5 3.375 -72.5 3.375 -71 5 C-71 5.66 -71 6.32 -71 7 C-70.34 7 -69.68 7 -69 7 C-68.484375 7.70125 -67.96875 8.4025 -67.4375 9.125 C-61.79429007 15.78109377 -53.74413293 20.39005268 -45.0078125 21.18017578 C-32.48326336 21.94648043 -23.36326107 20.47178329 -13 13 C-10.61644546 10.83724655 -8.3671259 8.55807077 -6.125 6.25 C-5.53203125 5.64800781 -4.9390625 5.04601562 -4.328125 4.42578125 C-2.88076876 2.95508055 -1.4397237 1.4781733 0 0 Z " fill="#53504F" transform="translate(113,78)"/>
<path d="M0 0 C22.44 0 44.88 0 68 0 C68 2.97 68 5.94 68 9 C45.56 9 23.12 9 0 9 C0 6.03 0 3.06 0 0 Z " fill="#5E5B5A" transform="translate(41,127)"/>
<path d="M0 0 C5.94 0 11.88 0 18 0 C17.16687441 4.99875355 16.34505694 7.71772212 14 12 C16.64 12 19.28 12 22 12 C22 14.64 22 17.28 22 20 C19.36 20 16.72 20 14 20 C14.515625 20.9075 15.03125 21.815 15.5625 22.75 C17 26 17 26 16 30 C11.38 30 6.76 30 2 30 C0.80843708 25.23374833 1.6584054 24.12120649 4 20 C1.36 20 -1.28 20 -4 20 C-4 17.36 -4 14.72 -4 12 C-1.36 12 1.28 12 4 12 C3.71125 11.46890625 3.4225 10.9378125 3.125 10.390625 C2.75375 9.68421875 2.3825 8.9778125 2 8.25 C1.62875 7.55390625 1.2575 6.8578125 0.875 6.140625 C0 4 0 4 0 0 Z " fill="#5B5857" transform="translate(66,13)"/>
<path d="M0 0 C2.84558548 0.02360977 5.69022969 0.02053782 8.53588867 0.01391602 C35.89003727 0.05442921 35.89003727 0.05442921 47.41674805 6.33618164 C47.08674805 7.32618164 46.75674805 8.31618164 46.41674805 9.33618164 C45.58916992 9.1827832 44.7615918 9.02938477 43.90893555 8.87133789 C18.53265501 4.98257902 -11.23953095 5.41433145 -36.58325195 9.33618164 C-36.58325195 8.34618164 -36.58325195 7.35618164 -36.58325195 6.33618164 C-26.32248058 -1.19194398 -12.07686461 -0.10696681 0 0 Z " fill="#6C6A69" transform="translate(69.583251953125,55.663818359375)"/>
<path d="M0 0 C1.91703735 -0.00472824 1.91703735 -0.00472824 3.87280273 -0.009552 C5.27848342 -0.00776222 6.6841638 -0.00571127 8.08984375 -0.00341797 C9.52091488 -0.00409105 10.9519859 -0.00506111 12.38305664 -0.00631714 C15.38591599 -0.00779391 18.38874565 -0.00564023 21.39160156 -0.00097656 C25.24886946 0.00472073 29.10606779 0.00144161 32.96333313 -0.00454903 C35.91947966 -0.00815521 38.87560958 -0.00701579 41.83175659 -0.00442123 C43.25438444 -0.00375212 44.67701378 -0.00457984 46.09963989 -0.00690079 C48.08465549 -0.0094282 50.06967634 -0.00489589 52.0546875 0 C53.75226196 0.00119339 53.75226196 0.00119339 55.48413086 0.00241089 C58.02734375 0.12939453 58.02734375 0.12939453 59.02734375 1.12939453 C59.15234375 3.62939453 59.15234375 3.62939453 59.02734375 6.12939453 C57.22471853 7.93201975 54.48357365 7.25708156 52.0546875 7.25878906 C50.7766626 7.26194122 49.4986377 7.26509338 48.18188477 7.26834106 C46.77620408 7.26655128 45.3705237 7.26450033 43.96484375 7.26220703 C42.53377262 7.26288011 41.1027016 7.26385018 39.67163086 7.2651062 C36.66877151 7.26658297 33.66594185 7.2644293 30.66308594 7.25976562 C26.80581804 7.25406834 22.94861971 7.25734745 19.09135437 7.26333809 C16.13520784 7.26694427 13.17907792 7.26580486 10.22293091 7.2632103 C8.80030306 7.26254119 7.37767372 7.2633689 5.95504761 7.26568985 C3.97003201 7.26821727 1.98501116 7.26368496 0 7.25878906 C-1.69757446 7.25759567 -1.69757446 7.25759567 -3.42944336 7.25637817 C-5.97265625 7.12939453 -5.97265625 7.12939453 -6.97265625 6.12939453 C-7.09765625 3.62939453 -7.09765625 3.62939453 -6.97265625 1.12939453 C-5.17003103 -0.67323069 -2.42888615 0.0017075 0 0 Z " fill="#5A5857" transform="translate(48.97265625,109.87060546875)"/>
<path d="M0 0 C1.21880859 -0.01224609 2.43761719 -0.02449219 3.69335938 -0.03710938 C5.43649414 -0.04000977 5.43649414 -0.04000977 7.21484375 -0.04296875 C8.28726318 -0.04707764 9.35968262 -0.05118652 10.46459961 -0.05541992 C13.0625 0.1875 13.0625 0.1875 15.0625 2.1875 C15.0625 3.5075 15.0625 4.8275 15.0625 6.1875 C5.1625 6.1875 -4.7375 6.1875 -14.9375 6.1875 C-13.18591051 -2.57044745 -7.94480943 0.00418809 0 0 Z " fill="#565352" transform="translate(74.9375,45.8125)"/>
<path d="M0 0 C17.16 0 34.32 0 52 0 C52 0.99 52 1.98 52 3 C34.84 3 17.68 3 0 3 C0 2.01 0 1.02 0 0 Z " fill="#504D4D" transform="translate(49,120)"/>
</svg>
