<?xml version="1.0" encoding="UTF-8"?>
<svg version="1.1" xmlns="http://www.w3.org/2000/svg" width="150" height="150">
<path d="M0 0 C1.875 1.5625 1.875 1.5625 3 4 C3 6.31 3 8.62 3 11 C7.62 11 12.24 11 17 11 C17.29132813 12.05058594 17.58265625 13.10117187 17.8828125 14.18359375 C20.97170225 24.91671852 24.73493231 36.30358771 35.08984375 42.1875 C37.04132392 43.17524392 39.00134298 44.11225904 41 45 C42.32339112 58.31560199 42.32339112 58.31560199 39.48828125 64.06640625 C36.06196962 68.01204792 33.51413861 69.78187488 28.28515625 70.53515625 C24.8051137 70.55988752 21.4553079 70.39812225 18 70 C18 69.01 18 68.02 18 67 C14.04 67 10.08 67 6 67 C14.08058468 78.04767437 22.248043 89.01996414 30.58007812 99.87963867 C32.39423651 102.24748373 34.19840811 104.62258781 36 107 C36.51353027 107.66418945 37.02706055 108.32837891 37.55615234 109.01269531 C41.13339701 113.76798334 41.77718393 116.17112051 41 122 C39.18836733 124.67431489 38.12238923 124.95920359 35 126 C32.74219482 126.10490817 30.48139825 126.14868272 28.22119141 126.16113281 C27.53628128 126.16609772 26.85137115 126.17106262 26.14570618 126.17617798 C23.88098138 126.19077715 21.61632661 126.19759766 19.3515625 126.203125 C17.77599079 126.20887809 16.20041909 126.21463581 14.62484741 126.22039795 C11.32118402 126.2309014 8.01754492 126.23674842 4.71386719 126.24023438 C0.4847611 126.2457192 -3.74402305 126.26974952 -7.97302818 126.29820633 C-11.2278639 126.31684765 -14.48262228 126.32203909 -17.73750687 126.32357025 C-19.29640082 126.3265937 -20.85529351 126.3346119 -22.41413498 126.34775543 C-24.59713871 126.3648485 -26.77935848 126.36292826 -28.96240234 126.35644531 C-30.20355804 126.36009094 -31.44471375 126.36373657 -32.72348022 126.36749268 C-36.28313358 125.96824389 -38.15692016 125.13765937 -41 123 C-42.16259766 120.9855957 -42.16259766 120.9855957 -42.9140625 118.67578125 C-43.19886475 117.82097168 -43.48366699 116.96616211 -43.77709961 116.08544922 C-44.1968103 114.71283936 -44.1968103 114.71283936 -44.625 113.3125 C-44.92349854 112.36133301 -45.22199707 111.41016602 -45.52954102 110.43017578 C-46.38694625 107.62870607 -47.20414031 104.81951334 -48 102 C-48.19932129 101.30148926 -48.39864258 100.60297852 -48.60400391 99.88330078 C-54.87890327 76.72693677 -52.65136392 50.66944977 -41.1640625 29.62890625 C-38.32247367 24.70719165 -35.07759357 19.98187541 -31 16 C-30.34 16 -29.68 16 -29 16 C-28.67 15.01 -28.34 14.02 -28 13 C-20.70869871 6.68698652 -9.96637751 -0.93170101 0 0 Z " fill="#5C5958" transform="translate(78,15)"/>
<path d="M0 0 C1.875 1.5625 1.875 1.5625 3 4 C3 6.31 3 8.62 3 11 C7.62 11 12.24 11 17 11 C17.29132813 12.05058594 17.58265625 13.10117187 17.8828125 14.18359375 C20.97170225 24.91671852 24.73493231 36.30358771 35.08984375 42.1875 C37.04132392 43.17524392 39.00134298 44.11225904 41 45 C42.32339112 58.31560199 42.32339112 58.31560199 39.48828125 64.06640625 C36.06196962 68.01204792 33.51413861 69.78187488 28.28515625 70.53515625 C24.8051137 70.55988752 21.4553079 70.39812225 18 70 C18 69.01 18 68.02 18 67 C14.04 67 10.08 67 6 67 C14.08058468 78.04767437 22.248043 89.01996414 30.58007812 99.87963867 C32.39423651 102.24748373 34.19840811 104.62258781 36 107 C36.51353027 107.66418945 37.02706055 108.32837891 37.55615234 109.01269531 C41.13339701 113.76798334 41.77718393 116.17112051 41 122 C39.18836733 124.67431489 38.12238923 124.95920359 35 126 C32.74219482 126.10490817 30.48139825 126.14868272 28.22119141 126.16113281 C27.53628128 126.16609772 26.85137115 126.17106262 26.14570618 126.17617798 C23.88098138 126.19077715 21.61632661 126.19759766 19.3515625 126.203125 C17.77599079 126.20887809 16.20041909 126.21463581 14.62484741 126.22039795 C11.32118402 126.2309014 8.01754492 126.23674842 4.71386719 126.24023438 C0.4847611 126.2457192 -3.74402305 126.26974952 -7.97302818 126.29820633 C-11.2278639 126.31684765 -14.48262228 126.32203909 -17.73750687 126.32357025 C-19.29640082 126.3265937 -20.85529351 126.3346119 -22.41413498 126.34775543 C-24.59713871 126.3648485 -26.77935848 126.36292826 -28.96240234 126.35644531 C-30.20355804 126.36009094 -31.44471375 126.36373657 -32.72348022 126.36749268 C-36.28313358 125.96824389 -38.15692016 125.13765937 -41 123 C-42.16259766 120.9855957 -42.16259766 120.9855957 -42.9140625 118.67578125 C-43.19886475 117.82097168 -43.48366699 116.96616211 -43.77709961 116.08544922 C-44.1968103 114.71283936 -44.1968103 114.71283936 -44.625 113.3125 C-44.92349854 112.36133301 -45.22199707 111.41016602 -45.52954102 110.43017578 C-46.38694625 107.62870607 -47.20414031 104.81951334 -48 102 C-48.19932129 101.30148926 -48.39864258 100.60297852 -48.60400391 99.88330078 C-54.87890327 76.72693677 -52.65136392 50.66944977 -41.1640625 29.62890625 C-38.32247367 24.70719165 -35.07759357 19.98187541 -31 16 C-30.34 16 -29.68 16 -29 16 C-28.67 15.01 -28.34 14.02 -28 13 C-20.70869871 6.68698652 -9.96637751 -0.93170101 0 0 Z M-10.1875 6.375 C-11.06792969 6.83648437 -11.94835937 7.29796875 -12.85546875 7.7734375 C-14.91344739 8.82586774 -14.91344739 8.82586774 -16 10 C-15.90913549 12.53541298 -15.7629055 15.03554784 -15.5625 17.5625 C-15.48418945 18.62887695 -15.48418945 18.62887695 -15.40429688 19.71679688 C-15.27425893 21.47821999 -15.13773103 23.23916173 -15 25 C-15.66 24.67 -16.32 24.34 -17 24 C-17.6328125 21.49609375 -17.6328125 21.49609375 -18.125 18.4375 C-18.29257812 17.42558594 -18.46015625 16.41367187 -18.6328125 15.37109375 C-18.75398438 14.58863281 -18.87515625 13.80617188 -19 13 C-19.99 13.33 -20.98 13.66 -22 14 C-22.28006762 22.25369635 -21.45544618 30.04913239 -20.125 38.1875 C-19.95097656 39.31091797 -19.77695312 40.43433594 -19.59765625 41.59179688 C-18.66320152 47.48578355 -17.56136436 53.23983149 -16 59 C-16.66 58.67 -17.32 58.34 -18 58 C-21.78103332 45.19199709 -23.41548775 31.24413067 -25 18 C-26.98 18.99 -26.98 18.99 -29 20 C-28.25185361 35.34990001 -26.83978655 51.34334144 -22 66 C-24.84441805 64.57779098 -24.99819889 62.96974557 -26 60 C-26.39726562 58.15369588 -26.73954879 56.29496901 -27.03515625 54.4296875 C-27.20466797 53.3675 -27.37417969 52.3053125 -27.54882812 51.2109375 C-27.71833984 50.11007813 -27.88785156 49.00921875 -28.0625 47.875 C-28.23587891 46.79734375 -28.40925781 45.7196875 -28.58789062 44.609375 C-29.66570736 37.7542954 -30.46653766 30.91858287 -31 24 C-33.13278636 25.59892748 -33.13278636 25.59892748 -35 28 C-35.41836094 30.99292709 -35.41836094 30.99292709 -35 34.375 C-34.94384521 35.00841309 -34.88769043 35.64182617 -34.82983398 36.29443359 C-33.21198674 53.60318179 -33.21198674 53.60318179 -28 70 C-28.99 70 -29.98 70 -31 70 C-32.32777979 63.66751179 -33.48781758 57.31698374 -34.5625 50.9375 C-34.68923096 50.1945166 -34.81596191 49.4515332 -34.9465332 48.68603516 C-35.81499718 43.47066537 -36.45274127 38.25889577 -37 33 C-38.70840281 34.63412443 -39.93453047 35.86906094 -41 38 C-40.94587402 44.81987326 -39.6479203 51.6557315 -38.5625 58.375 C-38.44036133 59.14779297 -38.31822266 59.92058594 -38.19238281 60.71679688 C-37.52255129 64.71490817 -36.70848887 68.28718003 -35 72 C-35.66 71.67 -36.32 71.34 -37 71 C-37.7848967 68.10032501 -38.45751255 65.25002464 -39.0625 62.3125 C-39.23587891 61.50876953 -39.40925781 60.70503906 -39.58789062 59.87695312 C-40.50069337 55.59972036 -41.32273412 51.32193379 -42 47 C-42.66 47 -43.32 47 -44 47 C-52.30533971 69.14757255 -46.59203107 97.77122129 -38 119 C-36.11887938 121.31175333 -36.11887938 121.31175333 -33.03282166 121.24723816 C-31.1253994 121.24510063 -31.1253994 121.24510063 -29.17944336 121.24291992 C-28.47850052 121.24481827 -27.77755768 121.24671661 -27.05537415 121.24867249 C-24.7334177 121.25238386 -22.4117725 121.24167206 -20.08984375 121.23046875 C-18.48084042 121.22927715 -16.87183639 121.22882374 -15.26283264 121.2290802 C-11.88928885 121.22751477 -8.5158511 121.21921989 -5.14233398 121.20581055 C-0.80866361 121.18880698 3.5248903 121.18499655 7.85859013 121.18575573 C11.18103659 121.1854844 14.50345737 121.18000938 17.82589531 121.17275429 C19.42435957 121.16956268 21.02282675 121.16759907 22.62129402 121.16686058 C24.85052624 121.16470296 27.07963253 121.15597182 29.30883789 121.14526367 C30.57965714 121.14145187 31.85047638 121.13764008 33.1598053 121.13371277 C35.9003506 121.3240066 35.9003506 121.3240066 37 120 C37.34596648 117.01349525 37.28887258 115.45964725 35.671875 112.88671875 C34.72054687 111.79810547 34.72054687 111.79810547 33.75 110.6875 C30.02966118 106.26918611 26.50911737 101.75693883 23.0625 97.125 C22.54816406 96.43599609 22.03382812 95.74699219 21.50390625 95.03710938 C20.48206038 93.66819717 19.46072887 92.29890085 18.43994141 90.92919922 C17.13451782 89.18022377 15.82468123 87.43472568 14.51171875 85.69140625 C12.33422816 82.7993678 10.16502755 79.90137703 8 77 C7.23042969 75.97261719 6.46085937 74.94523437 5.66796875 73.88671875 C4.93191406 72.89285156 4.19585937 71.89898437 3.4375 70.875 C2.77621094 69.98554687 2.11492187 69.09609375 1.43359375 68.1796875 C0 66 0 66 0 64 C7.26 63.67 14.52 63.34 22 63 C22 63.99 22 64.98 22 66 C24.64 66 27.28 66 30 66 C30.4640625 65.0409375 30.4640625 65.0409375 30.9375 64.0625 C32.47283766 61.08213867 34.01410352 60.44478862 37 59 C37.4756433 55.22788436 37.69761745 51.7523363 37 48 C34.18685521 44.95912444 30.63425725 43.66503534 26.859375 42.12890625 C24.45871009 40.6713597 24.09431647 39.59045226 23 37 C22.38185243 35.76996986 21.75600285 34.54379767 21.125 33.3203125 C20.41655698 31.92193056 19.70822685 30.52349143 19 29.125 C18.64421875 28.43019531 18.2884375 27.73539063 17.921875 27.01953125 C15.9350537 23.08295621 14.27558277 19.23865525 13 15 C11.04174127 14.97305149 9.08337774 14.95362782 7.125 14.9375 C6.03445312 14.92589844 4.94390625 14.91429687 3.8203125 14.90234375 C1.04822454 14.80255697 1.04822454 14.80255697 -1 16 C-1 12.37 -1 8.74 -1 5 C-5.56848698 3.85787826 -6.2200668 4.253566 -10.1875 6.375 Z " fill="#282827" transform="translate(78,15)"/>
<path d="M0 0 C8.09600175 7.59000164 14.44697254 16.85938118 21.05102539 25.72973633 C21.54852295 26.3977124 22.04602051 27.06568848 22.55859375 27.75390625 C23.00517334 28.35533447 23.45175293 28.9567627 23.91186523 29.57641602 C24.9319685 30.97609459 24.9319685 30.97609459 26 32 C26.125 34.5 26.125 34.5 26 37 C25 38 25 38 22.40795898 38.11352539 C21.28204346 38.10828857 20.15612793 38.10305176 18.99609375 38.09765625 C17.78115234 38.09443359 16.56621094 38.09121094 15.31445312 38.08789062 C14.03505859 38.07951172 12.75566406 38.07113281 11.4375 38.0625 C10.15423828 38.05798828 8.87097656 38.05347656 7.54882812 38.04882812 C4.36583978 38.03699545 1.18294238 38.02051068 -2 38 C-1.51015625 36.86046875 -1.0203125 35.7209375 -0.515625 34.546875 C1.17899667 30.01326363 1.38721105 26.04718931 1.25 21.25 C1.23356445 20.08235107 1.23356445 20.08235107 1.21679688 18.89111328 C1.09688797 12.57113218 0.69001326 6.28404935 0 0 Z " fill="#6D6B6A" transform="translate(89,98)"/>
<path d="M0 0 C0.33 0 0.66 0 1 0 C1 3.63 1 7.26 1 11 C-0.98 11.99 -0.98 11.99 -3 13 C-4.44197868 14.44197868 -5.11786244 16.17691571 -6 18 C-8.64 18 -11.28 18 -14 18 C-14 17.01 -14 16.02 -14 15 C-21.26 15 -28.52 15 -36 15 C-31.70458127 9.63072659 -28.42770476 7.16849949 -22 5 C-19.85625765 4.90886123 -18.1083902 5.15102953 -16.015625 5.59765625 C-13.70418986 6.05904737 -11.54300561 6.1212008 -9.1875 6.125 C-8.09501953 6.12886719 -8.09501953 6.12886719 -6.98046875 6.1328125 C-4.7879778 6.0693492 -4.7879778 6.0693492 -2 5 C-0.78130071 2.49552484 -0.78130071 2.49552484 0 0 Z " fill="#524F4F" transform="translate(114,63)"/>
<path d="M0 0 C1.8871875 0.061875 1.8871875 0.061875 3.8125 0.125 C4.35777344 1.59259766 4.35777344 1.59259766 4.9140625 3.08984375 C7.57327445 10.07852384 10.21435216 16.4351856 14.7109375 22.48828125 C15.8125 24.125 15.8125 24.125 15.8125 26.125 C16.328125 26.351875 16.84375 26.57875 17.375 26.8125 C20.73653127 28.6225553 23.74161144 30.86496404 26.8125 33.125 C26.1525 34.445 25.4925 35.765 24.8125 37.125 C20.8868781 36.54342639 18.73480631 34.7410766 15.8125 32.125 C9.30930319 23.18764573 3.78255263 13.28060526 2.8125 2.125 C-0.4875 2.125 -3.7875 2.125 -7.1875 2.125 C-4.09861478 0.06574319 -3.47814073 -0.1140374 0 0 Z " fill="#696766" transform="translate(87.1875,29.875)"/>
<path d="M0 0 C2.5 0.5 2.5 0.5 4.875 2.0625 C6.5 4.5 6.5 4.5 6.4375 8.125 C5.5 11.5 5.5 11.5 2.5 13.5 C-1.0625 13.3125 -1.0625 13.3125 -4.5 12.5 C-6.66551116 9.25173326 -7.05156953 8.26905843 -6.5 4.5 C-4.50600369 1.76748653 -3.3376027 0.66752054 0 0 Z " fill="#3C3A39" transform="translate(82.5,34.5)"/>
<path d="M0 0 C0.33 0 0.66 0 1 0 C1.14099121 0.99330322 1.28198242 1.98660645 1.42724609 3.01000977 C1.95536279 6.72133724 2.48992606 10.4317131 3.02636719 14.1418457 C3.25694812 15.74283308 3.48581755 17.34406797 3.71289062 18.94555664 C4.04098938 21.25735774 4.37538529 23.56817666 4.7109375 25.87890625 C4.80998383 26.58648575 4.90903015 27.29406525 5.01107788 28.02308655 C5.50171271 31.36185041 6.14692149 34.51090571 7.08056641 37.75756836 C8 41 8 41 8 45 C5 44 5 44 3.87939453 41.78344727 C2.34591964 36.92971399 1.67154095 31.95570797 0.875 26.9375 C0.69324219 25.86822266 0.51148438 24.79894531 0.32421875 23.69726562 C-2.63689558 5.27379115 -2.63689558 5.27379115 0 0 Z " fill="#3C3B3A" transform="translate(48,36)"/>
<path d="M0 0 C0.11275269 1.01030273 0.11275269 1.01030273 0.2277832 2.04101562 C1.59170899 14.140058 2.99990448 26.15338078 5.44921875 38.0859375 C6 41 6 41 6 44 C5.01 43.67 4.02 43.34 3 43 C2.15625 40.47265625 2.15625 40.47265625 1.5 37.0625 C1.25507812 35.80179688 1.01015625 34.54109375 0.7578125 33.2421875 C0.50255397 31.82860174 0.2500691 30.41451301 0 29 C-0.13438477 28.24750977 -0.26876953 27.49501953 -0.40722656 26.71972656 C-1.86078977 18.49661368 -3.13073121 10.30725741 -4 2 C-1 0 -1 0 0 0 Z " fill="#3C3B3A" transform="translate(56,30)"/>
<path d="M0 0 C0.33 0 0.66 0 1 0 C1.14099121 0.92224365 1.28198242 1.8444873 1.42724609 2.79467773 C1.95788402 6.25599286 2.49123879 9.71686762 3.02636719 13.17749023 C3.25627801 14.66788551 3.4851429 16.15844257 3.71289062 17.64916992 C4.91155342 25.49042238 6.13803076 33.2823985 8 41 C7.01 41 6.02 41 5 41 C1.77871841 31.90730446 0.39081612 22.50653153 -1 13 C-1.15855469 11.91847656 -1.31710938 10.83695313 -1.48046875 9.72265625 C-2.2691713 3.40375696 -2.2691713 3.40375696 0 0 Z " fill="#3B3A39" transform="translate(42,44)"/>
<path d="M0 0 C1.71340814 3.06320343 2.46336554 5.79120656 3.03515625 9.24609375 C3.20466797 10.24833984 3.37417969 11.25058594 3.54882812 12.28320312 C3.71833984 13.32412109 3.88785156 14.36503906 4.0625 15.4375 C4.40711281 17.4987714 4.75215027 19.55997187 5.09765625 21.62109375 C5.24726807 22.5330249 5.39687988 23.44495605 5.55102539 24.38452148 C5.9886156 26.93368079 6.48058204 29.4663724 7 32 C6.01 31.67 5.02 31.34 4 31 C3.10709314 28.07640194 2.41312047 25.29690601 1.8125 22.3125 C1.63525391 21.50876953 1.45800781 20.70503906 1.27539062 19.87695312 C0.35157038 15.51466678 -0.21010658 11.48468872 0 7 C-0.66 6.67 -1.32 6.34 -2 6 C-1.34 4.02 -0.68 2.04 0 0 Z " fill="#393837" transform="translate(36,55)"/>
<path d="M0 0 C2.5625 0.1875 2.5625 0.1875 4.5625 2.1875 C4.1875 4.8125 4.1875 4.8125 3.5625 7.1875 C1.25 7.875 1.25 7.875 -1.4375 8.1875 C-3.3125 7 -3.3125 7 -4.4375 5.1875 C-4.02450713 1.6770606 -3.6499568 0.28076591 0 0 Z " fill="#5A5756" transform="translate(82.4375,37.8125)"/>
<path d="M0 0 C1.03590199 5.05002222 1.10251672 9.87416389 1 15 C0.01 14.67 -0.98 14.34 -2 14 C-2.66 10.04 -3.32 6.08 -4 2 C-1 0 -1 0 0 0 Z " fill="#3D3B3B" transform="translate(62,25)"/>
</svg>
