<?xml version="1.0" encoding="UTF-8"?>
<svg version="1.1" xmlns="http://www.w3.org/2000/svg" width="150" height="150">
<path d="M0 0 C6.34468857 5.80559739 9.11973845 11.77662878 9.5 20.3125 C9.29333027 29.29229963 5.58263933 35.22448902 0 42 C0.9384375 42.49628906 1.876875 42.99257812 2.84375 43.50390625 C4.06327903 44.1887187 5.28198745 44.87499395 6.5 45.5625 C7.12003906 45.88541016 7.74007812 46.20832031 8.37890625 46.54101562 C10.15625 47.56640625 10.15625 47.56640625 13 50 C13.63688796 54.84034848 12.76244785 58.48372738 11 63 C7.37 63 3.74 63 0 63 C4.41513894 70.72294399 9.10823534 76.39956395 16 82 C16.66 82.66 17.32 83.32 18 84 C17.34 86.31 16.68 88.62 16 91 C17.65 91.66 19.3 92.32 21 93 C21.1080023 95.10304477 21.18558987 97.20766909 21.25 99.3125 C21.29640625 100.48425781 21.3428125 101.65601563 21.390625 102.86328125 C21 106 21 106 19.39013672 107.67178345 C16.23741564 109.42377373 13.96892922 109.38094173 10.3671875 109.38818359 C9.70978577 109.39344055 9.05238403 109.39869751 8.37506104 109.40411377 C6.2081303 109.41728708 4.04193784 109.40858585 1.875 109.3984375 C0.36572123 109.40045902 -1.1435566 109.40337111 -2.65283203 109.40713501 C-5.81357131 109.41155472 -8.97405598 109.4051389 -12.13476562 109.39111328 C-16.18352526 109.37402132 -20.23168827 109.38386443 -24.28042603 109.40183067 C-27.39628585 109.41267821 -30.51200454 109.40921778 -33.62786865 109.4014473 C-35.12058584 109.39944796 -36.61331591 109.40189523 -38.10601807 109.40888596 C-40.19341915 109.41651674 -42.27985797 109.40487507 -44.3671875 109.38818359 C-45.55425293 109.38579681 -46.74131836 109.38341003 -47.96435547 109.38095093 C-51.2795791 108.96491489 -52.69545518 108.39318452 -55 106 C-55.390625 102.86328125 -55.390625 102.86328125 -55.25 99.3125 C-55.21390625 98.13300781 -55.1778125 96.95351562 -55.140625 95.73828125 C-55.09421875 94.83464844 -55.0478125 93.93101563 -55 93 C-52.525 92.01 -52.525 92.01 -50 91 C-50.66 88.36 -51.32 85.72 -52 83 C-51.03900391 82.30777344 -51.03900391 82.30777344 -50.05859375 81.6015625 C-43.16414831 76.40247249 -37.88799509 70.77599018 -34 63 C-37.96 63 -41.92 63 -46 63 C-46.66 58.71 -47.32 54.42 -48 50 C-43.38 47.36 -38.76 44.72 -34 42 C-34.928125 40.824375 -35.85625 39.64875 -36.8125 38.4375 C-42.61695014 30.56101211 -44.21353203 23.73137115 -43 14 C-40.39777268 5.55721804 -35.38131605 0.64704511 -28 -3.8125 C-18.05573789 -7.74877042 -8.51791208 -6.22401108 0 0 Z " fill="#282828" transform="translate(92,32)"/>
<path d="M0 0 C5.26857809 4.1315559 8.50815005 8.72101295 9.45703125 15.421875 C9.76686815 22.6480711 8.35434504 27.84506042 3.69555664 33.39233398 C-0.62369775 37.5889618 -4.04035616 38.51715953 -10.015625 38.56640625 C-11.45421875 38.53160156 -11.45421875 38.53160156 -12.921875 38.49609375 C-14.36046875 38.53089844 -14.36046875 38.53089844 -15.828125 38.56640625 C-21.80339384 38.51715953 -25.22005225 37.5889618 -29.53930664 33.39233398 C-34.19780327 27.84540784 -35.6162918 22.64477396 -35.296875 15.41796875 C-34.27727412 8.15331251 -30.526564 3.69472308 -24.93359375 -0.84375 C-17.01094885 -6.39729332 -7.74800326 -5.05509969 0 0 Z " fill="#5B5857" transform="translate(87.921875,34.25390625)"/>
<path d="M0 0 C7.92 0 15.84 0 24 0 C26.475 4.95 26.475 4.95 29 10 C29.99 10.99 30.98 11.98 32 13 C32 13.66 32 14.32 32 15 C32.66 15 33.32 15 34 15 C35.70993434 16.6222454 37.37347684 18.29413425 39 20 C39.61875 20.474375 40.2375 20.94875 40.875 21.4375 C41.24625 21.953125 41.6175 22.46875 42 23 C41.67 24.98 41.34 26.96 41 29 C21.86 29 2.72 29 -17 29 C-18 23 -18 23 -16.6875 21.125 C-15 20 -15 20 -13 20 C-13 19.34 -13 18.68 -13 18 C-11.625 16.375 -11.625 16.375 -10 15 C-9.34 15 -8.68 15 -8 15 C-7.60167969 14.18789062 -7.60167969 14.18789062 -7.1953125 13.359375 C-4.90919708 8.84691189 -2.42944859 4.43638437 0 0 Z " fill="#5C5958" transform="translate(63,94)"/>
<path d="M0 0 C1.38302412 0.73315012 2.74907282 1.49946477 4.09375 2.30078125 C4.73086914 2.67058105 5.36798828 3.04038086 6.02441406 3.42138672 C7.765625 4.5859375 7.765625 4.5859375 10.34375 7.23828125 C10.34375 9.54828125 10.34375 11.85828125 10.34375 14.23828125 C-6.15625 14.23828125 -22.65625 14.23828125 -39.65625 14.23828125 C-39.98625 11.92828125 -40.31625 9.61828125 -40.65625 7.23828125 C-38.55437468 5.92198558 -36.44993324 4.61015128 -34.34375 3.30078125 C-33.45139648 2.74100586 -33.45139648 2.74100586 -32.54101562 2.16992188 C-23.35270967 -3.52785444 -10.02959719 -4.39883158 0 0 Z " fill="#514E4E" transform="translate(89.65625,76.76171875)"/>
<path d="M0 0 C22.44 0 44.88 0 68 0 C68 2.97 68 5.94 68 9 C45.56 9 23.12 9 0 9 C0 6.03 0 3.06 0 0 Z " fill="#5E5B5A" transform="translate(41,127)"/>
<path d="M0 0 C7.92 0 15.84 0 24 0 C24.66 1.98 25.32 3.96 26 6 C21.2169481 7.73898074 16.42979772 9.46595517 11.63842773 11.18188477 C10.00865984 11.76745831 8.3800663 12.35631098 6.75268555 12.94848633 C4.41495012 13.79850716 2.07326205 14.63669332 -0.26953125 15.47265625 C-1.36186821 15.87412621 -1.36186821 15.87412621 -2.47627258 16.28370667 C-7.65838488 18.11387171 -7.65838488 18.11387171 -11 17 C-10.67 16.34 -10.34 15.68 -10 15 C-9.34 15 -8.68 15 -8 15 C-7.60167969 14.18789062 -7.60167969 14.18789062 -7.1953125 13.359375 C-4.90919708 8.84691189 -2.42944859 4.43638437 0 0 Z " fill="#514E4E" transform="translate(63,94)"/>
<path d="M0 0 C0.99 0.495 0.99 0.495 2 1 C1.01 1.495 1.01 1.495 0 2 C0 1.34 0 0.68 0 0 Z M-2 2 C-1.34 2.33 -0.68 2.66 0 3 C-0.66 3.66 -1.32 4.32 -2 5 C16.15 5.33 34.3 5.66 53 6 C53.33 5.34 53.66 4.68 54 4 C55 7 55 7 54 11 C34.86 11 15.72 11 -4 11 C-4.33 9.02 -4.66 7.04 -5 5 C-3.5625 3.125 -3.5625 3.125 -2 2 Z " fill="#524F4F" transform="translate(50,112)"/>
<path d="M0 0 C7.470925 0.16704803 12.45043417 2.69991542 18.11376953 7.58984375 C17.78376953 8.24984375 17.45376953 8.90984375 17.11376953 9.58984375 C5.23376953 9.58984375 -6.64623047 9.58984375 -18.88623047 9.58984375 C-11.61308718 1.10450992 -10.2748532 0.11473415 0 0 Z " fill="#5D5A59" transform="translate(79.88623046875,75.41015625)"/>
<path d="M0 0 C5.45558554 0.22267696 8.44696042 1.43297815 12.421875 5.2109375 C17.36390518 10.81353607 18.60365524 16.08627807 18.3359375 23.5 C17.92129367 26.58572152 17.0358968 28.63835972 15 31 C14.67 31 14.34 31 14 31 C14.03480469 30.31035156 14.06960937 29.62070312 14.10546875 28.91015625 C14.37597852 19.51960293 13.06904244 12.46456583 6.5625 5.4375 C4.55948529 3.59472647 2.39946772 2.27030644 0 1 C0 0.67 0 0.34 0 0 Z " fill="#696766" transform="translate(79,32)"/>
</svg>
