<?xml version="1.0" encoding="UTF-8"?>
<svg version="1.1" xmlns="http://www.w3.org/2000/svg" width="150" height="150">
<path d="M0 0 C3.72005698 2.99671257 5.99328021 5.62562776 6.56640625 10.5078125 C6.65983889 15.17944461 6.65810572 18.70908785 4.25 22.8125 C4.89066406 23.1528125 5.53132813 23.493125 6.19140625 23.84375 C13.36474707 27.86338659 19.60461108 32.28768047 22.5 40.25 C23.0775 41.095625 23.655 41.94125 24.25 42.8125 C26.57264069 42.94344937 26.57264069 42.94344937 29.25 42.8125 C32.37128151 42.88334351 34.42630933 43.10535738 36.83740234 45.17529297 C46.25 55.46023517 46.25 55.46023517 46.25 59.8125 C45.239375 60.245625 44.22875 60.67875 43.1875 61.125 C35.51119204 65.53810012 31.65615147 75.02386822 28.96875 83.09765625 C27.8665816 87.26073799 27.00817117 91.49182495 27.25 95.8125 C28.24 97.2975 28.24 97.2975 29.25 98.8125 C28.98294663 103.6194607 28.00005456 106.86676955 25.25 110.8125 C25.889375 111.10125 26.52875 111.39 27.1875 111.6875 C29.25 112.8125 29.25 112.8125 30.25 114.8125 C30.5234375 116.80078125 30.5234375 116.80078125 30.625 119.125 C30.67398438 119.88425781 30.72296875 120.64351563 30.7734375 121.42578125 C29.977025 125.05718449 28.07621826 126.47508439 25.25 128.8125 C22.09410095 129.43395996 22.09410095 129.43395996 18.50366211 129.42773438 C17.84611435 129.43328339 17.18856659 129.4388324 16.51109314 129.44454956 C14.34908951 129.45630986 12.189199 129.43211518 10.02734375 129.40625 C8.51949662 129.404538 7.01164651 129.40460549 5.50379944 129.40637207 C2.3488403 129.40472099 -0.80540641 129.38606147 -3.96020508 129.35449219 C-8.00114039 129.31478034 -12.04114473 129.31045199 -16.0822382 129.31795502 C-19.19384773 129.32102626 -22.30524851 129.30889941 -25.41680717 129.29182434 C-26.90671924 129.28480143 -28.39665495 129.28166895 -29.88658333 129.28251648 C-31.96917524 129.28071592 -34.05065708 129.25931589 -36.13305664 129.23242188 C-37.90913048 129.21979309 -37.90913048 129.21979309 -39.72108459 129.20690918 C-43.02201509 128.77707965 -44.43499492 128.17343347 -46.75 125.8125 C-47.24609375 123 -47.24609375 123 -47.1875 119.8125 C-47.18621094 118.760625 -47.18492188 117.70875 -47.18359375 116.625 C-46.75 113.8125 -46.75 113.8125 -45.34765625 111.9375 C-43.75 110.8125 -43.75 110.8125 -41.75 110.8125 C-43.50454385 107.63015895 -43.50454385 107.63015895 -45.75 104.8125 C-45.98728814 98.28707627 -45.98728814 98.28707627 -44.75 95.8125 C-43.57381688 85.22685195 -48.53150008 74.15203866 -54.75 65.8125 C-57.53681834 63.1583873 -60.24223634 61.37150607 -63.75 59.8125 C-62.12921571 56.08381047 -59.77767716 53.23903322 -57.1875 50.125 C-55.97900391 48.66513672 -55.97900391 48.66513672 -54.74609375 47.17578125 C-52.75 44.8125 -52.75 44.8125 -51.75 43.8125 C-49.89712498 43.74023498 -48.04166122 43.7286878 -46.1875 43.75 C-45.17558594 43.75902344 -44.16367187 43.76804688 -43.12109375 43.77734375 C-41.94740234 43.79474609 -41.94740234 43.79474609 -40.75 43.8125 C-40.564375 42.9875 -40.37875 42.1625 -40.1875 41.3125 C-37.38273773 34.48351361 -31.69512064 29.07747785 -25.75 24.8125 C-22.875 24 -22.875 24 -20.75 23.8125 C-21.245 22.9875 -21.74 22.1625 -22.25 21.3125 C-24.52746012 15.99842638 -24.5426594 11.98188363 -22.5625 6.5625 C-16.97206638 -1.91953722 -9.05543416 -3.91030112 0 0 Z " fill="#282828" transform="translate(80.75,12.1875)"/>
<path d="M0 0 C0 1.32 0 2.64 0 4 C1.97536745 3.65213292 1.97536745 3.65213292 4 3 C4.33 2.34 4.66 1.68 5 1 C9.29 1 13.58 1 18 1 C18 1.99 18 2.98 18 4 C20.64 4 23.28 4 26 4 C26 3.01 26 2.02 26 1 C30.62 1 35.24 1 40 1 C40 1.99 40 2.98 40 4 C42.64 4 45.28 4 48 4 C48 3.01 48 2.02 48 1 C52.29 1 56.58 1 61 1 C61.495 2.485 61.495 2.485 62 4 C63.65 4 65.3 4 67 4 C67 3.01 67 2.02 67 1 C72.02072539 0.29533679 72.02072539 0.29533679 75 1 C77.76760928 3.35893427 79.89141364 6.04797909 82 9 C80.71937515 10.7074998 79.38232443 12.37373596 78 14 C77.34 14 76.68 14 76 14 C75.71898438 14.5775 75.43796875 15.155 75.1484375 15.75 C74.0543467 17.89352484 72.85470144 19.93222178 71.625 22 C67.94886661 28.60181352 65.33959374 35.67229656 64.45019531 43.19311523 C64.30163086 44.44938721 64.15306641 45.70565918 64 47 C56.06386213 47.02312764 48.12773824 47.04091723 40.19157505 47.05181217 C36.50685502 47.05704008 32.82215797 47.06413605 29.13745117 47.07543945 C25.58429169 47.08627162 22.03115437 47.09227753 18.47797966 47.09487724 C17.11954334 47.0967309 15.76110829 47.10035038 14.40268135 47.10573006 C12.50617777 47.11294475 10.60965207 47.11340809 8.71313477 47.11352539 C7.09097801 47.11685631 7.09097801 47.11685631 5.43605042 47.12025452 C3 47 3 47 2 46 C1.67294516 44.52825321 1.38898848 43.04685628 1.125 41.5625 C-1.25150635 29.52609372 -4.70834066 18.60380329 -15 11 C-13.35700103 2.4639594 -8.32893692 -1.00521652 0 0 Z " fill="#565353" transform="translate(39,60)"/>
<path d="M0 0 C6.35623991 3.49162889 11.35004098 8.03007377 14.875 14.375 C14.875 15.365 14.875 16.355 14.875 17.375 C9.595 17.375 4.315 17.375 -1.125 17.375 C-1.125 18.695 -1.125 20.015 -1.125 21.375 C-1.785 21.375 -2.445 21.375 -3.125 21.375 C-3.125 20.055 -3.125 18.735 -3.125 17.375 C-9.725 17.375 -16.325 17.375 -23.125 17.375 C-23.455 18.365 -23.785 19.355 -24.125 20.375 C-24.125 19.385 -24.125 18.395 -24.125 17.375 C-29.735 17.375 -35.345 17.375 -41.125 17.375 C-37.96297552 9.46993879 -32.67203341 3.63375073 -25.19921875 -0.5546875 C-17.46261008 -3.2482463 -7.61552258 -3.08278444 0 0 Z " fill="#5D5A59" transform="translate(85.125,39.625)"/>
<path d="M0 0 C22.44 0 44.88 0 68 0 C68 2.97 68 5.94 68 9 C45.56 9 23.12 9 0 9 C0 6.03 0 3.06 0 0 Z " fill="#5E5B5A" transform="translate(38,127)"/>
<path d="M0 0 C8.31000792 -0.04628625 16.61996221 -0.0818502 24.93006706 -0.10362434 C28.78854797 -0.11407343 32.64694085 -0.128253 36.50537109 -0.15087891 C40.22712192 -0.1725674 43.94878794 -0.18456014 47.67059708 -0.18975449 C49.09241191 -0.19345745 50.51422197 -0.20068819 51.93600082 -0.21146011 C53.92327114 -0.22592119 55.91062631 -0.22681646 57.89794922 -0.22705078 C59.03046112 -0.231492 60.16297302 -0.23593323 61.32980347 -0.24050903 C64 0 64 0 66 2 C65.46428571 5.53571429 65.46428571 5.53571429 64 7 C62.04719816 7.10450769 60.09059455 7.13855374 58.13500977 7.14526367 C56.88023331 7.15164352 55.62545685 7.15802338 54.33265686 7.16459656 C52.95224038 7.16612512 51.57182338 7.16723914 50.19140625 7.16796875 C48.78515081 7.17117967 47.37889571 7.17454362 45.97264099 7.17805481 C43.02105942 7.18405232 40.06950716 7.18589408 37.11791992 7.18530273 C33.33019954 7.18520109 29.54266653 7.19885285 25.75499058 7.21607494 C22.84941235 7.22717742 19.94387967 7.22922248 17.03828239 7.22869301 C15.64159436 7.2298758 14.24490524 7.23431421 12.84823799 7.24202538 C10.89697799 7.25178925 8.94566336 7.24769234 6.99438477 7.24291992 C5.32678856 7.24505745 5.32678856 7.24505745 3.62550354 7.24723816 C1 7 1 7 -1 5 C-0.625 2.375 -0.625 2.375 0 0 Z " fill="#5A5857" transform="translate(40,110)"/>
<path d="M0 0 C4.62 0 9.24 0 14 0 C14 0.99 14 1.98 14 3 C16.64 3 19.28 3 22 3 C22 2.01 22 1.02 22 0 C26.29 0 30.58 0 35 0 C35.495 1.485 35.495 1.485 36 3 C37.65 3 39.3 3 41 3 C41 2.01 41 1.02 41 0 C44.0899819 -0.43368167 46.01837024 -0.70003481 49 0 C51.79521772 2.33544359 53.96197785 4.98754851 56 8 C56 8.33 56 8.66 56 9 C37.52 9 19.04 9 0 9 C0 6.03 0 3.06 0 0 Z " fill="#6A6867" transform="translate(65,61)"/>
<path d="M0 0 C3.58552881 1.63687185 4.79315055 2.68972583 7 6 C7.436657 11.41454674 7.38281119 14.53468924 4 19 C2.06259347 20.93740653 -1.30159872 20.2625055 -3.875 20.3125 C-5.13054687 20.34988281 -6.38609375 20.38726562 -7.6796875 20.42578125 C-11 20 -11 20 -12.91015625 18.3203125 C-14.9473184 13.98312857 -14.83417013 9.66032237 -14 5 C-10.79762327 -0.48978868 -5.70354069 -0.72425913 0 0 Z " fill="#5A5756" transform="translate(76,15)"/>
<path d="M0 0 C-0.5878125 0.25652344 -1.175625 0.51304688 -1.78125 0.77734375 C-8.70088875 4.59045454 -12.3411225 11.86562063 -15 19 C-15.99 19 -16.98 19 -18 19 C-18.33 19.99 -18.66 20.98 -19 22 C-19 21.01 -19 20.02 -19 19 C-24.61 19 -30.22 19 -36 19 C-32.82972221 11.07430552 -27.54385047 5.32604763 -20.109375 1.0546875 C-13.64859751 -1.13678225 -6.72536336 -0.42131047 0 0 Z " fill="#4C4A49" transform="translate(80,38)"/>
<path d="M0 0 C19.14 0 38.28 0 58 0 C58 1.32 58 2.64 58 4 C38.86 4 19.72 4 0 4 C0 2.68 0 1.36 0 0 Z " fill="#4A4848" transform="translate(43,120)"/>
<path d="M0 0 C4.29 0 8.58 0 13 0 C13 0.99 13 1.98 13 3 C15.64 3 18.28 3 21 3 C21 4.98 21 6.96 21 9 C11.33333333 9 1.66666667 9 -8 9 C-7.34 7.35 -6.68 5.7 -6 4 C-4.35 4 -2.7 4 -1 4 C-0.67 2.68 -0.34 1.36 0 0 Z " fill="#5D5A59" transform="translate(44,61)"/>
<path d="M0 0 C5.65885898 0.94314316 9.20678279 4.93399087 12.7734375 9.2578125 C14.63360864 11.88316043 15.375 13.29338298 15.375 16.5625 C10.33010345 16.92142545 6.52265859 17.14676255 1.9375 14.8125 C-2.38233378 11.01947522 -4.24120296 8.44738798 -4.625 2.5625 C-2.625 0.5625 -2.625 0.5625 0 0 Z " fill="#6C6A69" transform="translate(84.625,40.4375)"/>
<path d="M0 0 C3.73353364 0.2871949 6.32404139 0.53202866 9.4375 2.6875 C11.4218681 5.62436479 11.31577173 7.526511 11 11 C5.93303262 10.55291464 3.46483222 8.54540971 0 5 C-0.375 2.1875 -0.375 2.1875 0 0 Z " fill="#6C6968" transform="translate(71,15)"/>
<path d="M0 0 C1.85625 0.1546875 1.85625 0.1546875 3.75 0.3125 C2.19705759 3.80662042 0.53901362 6.67027657 -2.25 9.3125 C-5.05033987 9.7470355 -7.39235311 9.55063724 -10.25 9.3125 C-7.96351572 4.16791038 -6.08014714 -0.01074231 0 0 Z " fill="#5C5958" transform="translate(34.25,60.6875)"/>
</svg>
