<?xml version="1.0" encoding="UTF-8"?>
<svg version="1.1" xmlns="http://www.w3.org/2000/svg" width="150" height="150">
<path d="M0 0 C5.28 0 10.56 0 16 0 C16 1.98 16 3.96 16 6 C16.66 6 17.32 6 18 6 C18 4.02 18 2.04 18 0 C34.17 0 50.34 0 67 0 C67 10.23 67 20.46 67 31 C66.34 31 65.68 31 65 31 C65 32.65 65 34.3 65 36 C63.35 36.33 61.7 36.66 60 37 C59.5359375 38.4540625 59.5359375 38.4540625 59.0625 39.9375 C58 43 58 43 57 44 C56.09815263 53.59079996 58.00548896 62.68903872 60 72 C60.21269531 72.99644531 60.42539063 73.99289063 60.64453125 75.01953125 C61.08161991 77.01630319 61.53777934 79.0088956 62 81 C63.051875 80.896875 64.10375 80.79375 65.1875 80.6875 C69 81 69 81 72 83.0625 C74 86 74 86 74 89.625 C73.01711219 92.94224637 72.44813074 93.80466537 70 96 C70.56589844 96.20496094 71.13179688 96.40992187 71.71484375 96.62109375 C72.44832031 96.89050781 73.18179688 97.15992187 73.9375 97.4375 C74.66839844 97.70433594 75.39929688 97.97117187 76.15234375 98.24609375 C78 99 78 99 79 100 C79.17813354 102.12008116 79.26789228 104.24791612 79.3125 106.375 C79.36857422 108.11910156 79.36857422 108.11910156 79.42578125 109.8984375 C79 113 79 113 77.47973633 114.66859436 C74.0047254 116.53437706 70.7463121 116.4267016 66.8984375 116.40405273 C66.08497864 116.41091599 65.27151978 116.41777924 64.43341064 116.42485046 C61.74709575 116.44313763 59.06136373 116.4392787 56.375 116.43359375 C54.50699676 116.43815428 52.6389952 116.44345947 50.77099609 116.44947815 C46.85702699 116.45841275 42.94326189 116.45598175 39.02929688 116.44604492 C34.01193171 116.4345484 28.99526961 116.45477532 23.97799683 116.48396206 C20.12096683 116.50230059 16.2641061 116.50203641 12.40704346 116.49632454 C10.55705783 116.49617107 8.70706091 116.50223646 6.8571167 116.51461601 C4.2714819 116.52948201 1.68715611 116.51888247 -0.8984375 116.50170898 C-1.66323425 116.51137695 -2.42803101 116.52104492 -3.21600342 116.53100586 C-6.71053019 116.48236422 -8.6463654 116.26617421 -11.4753418 114.13685608 C-13.4185726 111.41335743 -13.50528736 109.75908059 -13.4375 106.4375 C-13.43621094 105.48746094 -13.43492188 104.53742188 -13.43359375 103.55859375 C-13 101 -13 101 -11.703125 99.203125 C-9.02567082 97.31171242 -6.19963405 97.30185227 -3 97 C-3 96.01 -3 95.02 -3 94 C-3.66 94 -4.32 94 -5 94 C-7 91 -7 91 -6.8125 87.5 C-6 84 -6 84 -4.875 82.125 C-2.08807587 80.45284552 0.81088697 80.40508364 4 80 C10.48295445 60.65349211 10.48295445 60.65349211 8.3125 41.1875 C6.10344 38.14257946 5.2628206 37.40816468 2 36 C2 34.35 2 32.7 2 31 C1.34 31 0.68 31 0 31 C0 20.77 0 10.54 0 0 Z " fill="#1D1D1D" transform="translate(41,25)"/>
<path d="M0 0 C12.21 0 24.42 0 37 0 C37.268125 3.196875 37.53625 6.39375 37.8125 9.6875 C38.56467716 18.04351618 39.86068094 25.88281225 42 34 C42.495 36.475 42.495 36.475 43 39 C26.83 39 10.66 39 -6 39 C-5.36060215 34.52421505 -4.90700548 31.4294155 -3.5625 27.375 C-1.01861098 18.50879855 -0.75703866 9.14269762 0 0 Z " fill="#5D5A59" transform="translate(56,68)"/>
<path d="M0 0 C2.64 0 5.28 0 8 0 C8 1.98 8 3.96 8 6 C11.3 6 14.6 6 18 6 C18 4.02 18 2.04 18 0 C25.26 0 32.52 0 40 0 C40 1.98 40 3.96 40 6 C43.3 6 46.6 6 50 6 C50 4.02 50 2.04 50 0 C52.97 0 55.94 0 59 0 C59 7.59 59 15.18 59 23 C39.53 23 20.06 23 0 23 C0 15.41 0 7.82 0 0 Z " fill="#5F5C5B" transform="translate(45,29)"/>
<path d="M0 0 C0.77251602 0.00359528 1.54503204 0.00719055 2.34095764 0.01089478 C3.55549622 0.01067574 3.55549622 0.01067574 4.79457092 0.01045227 C7.48380671 0.01115163 10.17297412 0.01894507 12.86219788 0.02676392 C14.72164878 0.02862802 16.58110018 0.03005196 18.44055176 0.03105164 C23.34458258 0.03487746 28.24858398 0.04470829 33.15260315 0.05575562 C38.15280255 0.06596836 43.15300669 0.07054896 48.1532135 0.07559204 C57.97158583 0.0863305 67.78993629 0.10340769 77.60829163 0.12442017 C77.60829163 3.09442017 77.60829163 6.06442017 77.60829163 9.12442017 C49.88829163 9.12442017 22.16829163 9.12442017 -6.39170837 9.12442017 C-6.39170837 0.01255657 -6.39170837 0.01255657 0 0 Z " fill="#5D5A59" transform="translate(38.39170837402344,126.87557983398438)"/>
<path d="M0 0 C12.21 0 24.42 0 37 0 C37 3.3 37 6.6 37 10 C36.67 10 36.34 10 36 10 C36 8.02 36 6.04 36 4 C20.31936437 9.04106988 12.98042264 17.18649735 5 31 C4.01 32.98 3.02 34.96 2 37 C21.8 37.495 21.8 37.495 42 38 C42.495 37.01 42.495 37.01 43 36 C43 36.99 43 37.98 43 39 C26.83 39 10.66 39 -6 39 C-5.36060215 34.52421505 -4.90700548 31.4294155 -3.5625 27.375 C-1.01861098 18.50879855 -0.75703866 9.14269762 0 0 Z " fill="#504D4D" transform="translate(56,68)"/>
<path d="M0 0 C1.00730415 -0.00262848 1.00730415 -0.00262848 2.03495789 -0.00531006 C4.26486765 -0.00972777 6.49469874 -0.00679089 8.72460938 -0.00341797 C10.26778173 -0.00409103 11.81095398 -0.00506108 13.35412598 -0.00631714 C16.59237678 -0.007794 19.83060005 -0.00563993 23.06884766 -0.00097656 C27.2287846 0.00472073 31.38865704 0.00144166 35.54859161 -0.00454903 C38.73635345 -0.00815496 41.92409989 -0.00701591 45.11186218 -0.00442123 C46.6461335 -0.00375205 48.1804062 -0.00458008 49.7146759 -0.00690079 C51.85539478 -0.00942784 53.9960078 -0.00558601 56.13671875 0 C57.96752991 0.00119339 57.96752991 0.00119339 59.83532715 0.00241089 C62.56835938 0.12939453 62.56835938 0.12939453 63.56835938 1.12939453 C63.69335938 3.62939453 63.69335938 3.62939453 63.56835938 6.12939453 C61.71128515 7.98646876 58.63375162 7.26689023 56.15258789 7.2746582 C55.14769318 7.27969612 55.14769318 7.27969612 54.12249756 7.28483582 C51.89740163 7.29437174 49.67238074 7.29629025 47.44726562 7.29736328 C45.90648873 7.30057406 44.36571215 7.30393799 42.82493591 7.30744934 C39.59088433 7.31344725 36.35685949 7.31528857 33.12280273 7.31469727 C28.97188417 7.31459561 24.82113655 7.32824807 20.67025852 7.34546947 C17.48674222 7.35656993 14.30326749 7.35861708 11.11973381 7.35808754 C9.58907418 7.35927061 8.05841358 7.36371056 6.5277729 7.37141991 C4.38956749 7.38118052 2.2517364 7.37835759 0.11352539 7.37231445 C-1.10479477 7.37373947 -2.32311493 7.37516449 -3.57835388 7.37663269 C-6.43164062 7.12939453 -6.43164062 7.12939453 -8.43164062 5.12939453 C-7.55976692 -0.62497192 -5.44062858 0.0035464 0 0 Z " fill="#5A5756" transform="translate(46.431640625,109.87060546875)"/>
<path d="M0 0 C18.15 0 36.3 0 55 0 C55 0.99 55 1.98 55 3 C54.401875 3.226875 53.80375 3.45375 53.1875 3.6875 C50.76959206 4.84285365 50.76959206 4.84285365 49.94921875 7.54052734 C48 10 48 10 46.13061523 10.47613525 C43.61666666 10.66458041 41.14597807 10.69260927 38.625 10.6640625 C37.70412598 10.66884613 36.78325195 10.67362976 35.83447266 10.67855835 C33.88767794 10.68196054 31.94082634 10.67273576 29.99414062 10.65185547 C27.0104257 10.62509351 24.03047261 10.65159147 21.046875 10.68359375 C19.15624168 10.68028971 17.2656107 10.67388359 15.375 10.6640625 C14.48119629 10.67418365 13.58739258 10.68430481 12.66650391 10.69473267 C10.33564097 10.65052333 8.25996781 10.57334414 6 10 C4.1015625 7.58349609 4.1015625 7.58349609 3 5 C2.01 4.34 1.02 3.68 0 3 C0 2.01 0 1.02 0 0 Z " fill="#4F4C4C" transform="translate(47,55)"/>
<path d="M0 0 C20.79 0 41.58 0 63 0 C63 0.99 63 1.98 63 3 C42.21 3 21.42 3 0 3 C0 2.01 0 1.02 0 0 Z " fill="#4F4C4C" transform="translate(43,120)"/>
</svg>
