<?xml version="1.0" encoding="UTF-8"?>
<svg version="1.1" xmlns="http://www.w3.org/2000/svg" width="150" height="150">
<path d="M0 0 C0.89847656 -0.020625 1.79695313 -0.04125 2.72265625 -0.0625 C7.6941592 -0.09187372 11.08188873 0.00896343 15.125 3.25 C16.125 4.25 16.125 4.25 16.3125 7.5 C16.13601911 11.0296179 15.51072372 13.07324206 14.125 16.25 C14.81207031 16.98605469 15.49914062 17.72210938 16.20703125 18.48046875 C17.11741501 19.46593571 18.02755854 20.45162462 18.9375 21.4375 C19.83082031 22.40042969 20.72414062 23.36335938 21.64453125 24.35546875 C25.83693465 29.24770642 25.83693465 29.24770642 27.125 32.25 C26.23754761 36.83517071 23.61702842 38.8265426 20 41.5625 C19.08992188 42.25988281 18.17984375 42.95726562 17.2421875 43.67578125 C16.54351562 44.19527344 15.84484375 44.71476562 15.125 45.25 C16.39507214 44.2906581 17.66608919 43.33256706 18.9375 42.375 C19.64519531 41.84132812 20.35289063 41.30765625 21.08203125 40.7578125 C25.81256423 37.26644399 25.81256423 37.26644399 28.5 37.125 C32.75590284 38.94895836 34.20744047 42.1596214 36.125 46.25 C41.31880524 59.35255412 41.55664713 70.16466829 36.125 83.25 C34.32575044 86.42282301 32.35881762 89.36837527 30.125 92.25 C30.785 92.91 31.445 93.57 32.125 94.25 C32.5625 97.625 32.5625 97.625 32.125 101.25 C29.625 103.6875 29.625 103.6875 27.125 105.25 C28.383125 105.53875 29.64125 105.8275 30.9375 106.125 C33.9789399 106.82303539 35.43169878 107.45446585 38.125 109.25 C38.55859375 112.18359375 38.55859375 112.18359375 38.5625 115.6875 C38.58183594 116.84121094 38.60117188 117.99492187 38.62109375 119.18359375 C38.125 122.25 38.125 122.25 36.50854492 123.91738892 C33.35966888 125.67788735 31.09437948 125.63094083 27.4921875 125.63818359 C26.83478577 125.64344055 26.17738403 125.64869751 25.50006104 125.65411377 C23.3331303 125.66728708 21.16693784 125.65858585 19 125.6484375 C17.49072123 125.65045902 15.9814434 125.65337111 14.47216797 125.65713501 C11.31142869 125.66155472 8.15094402 125.6551389 4.99023438 125.64111328 C0.94147474 125.62402132 -3.10668827 125.63386443 -7.15542603 125.65183067 C-10.27128585 125.66267821 -13.38700454 125.65921778 -16.50286865 125.6514473 C-17.99558584 125.64944796 -19.48831591 125.65189523 -20.98101807 125.65888596 C-23.06841915 125.66651674 -25.15485797 125.65487507 -27.2421875 125.63818359 C-28.42925293 125.63579681 -29.61631836 125.63341003 -30.83935547 125.63095093 C-34.15608894 125.21472542 -35.55859618 124.62977433 -37.875 122.25 C-38.44140625 119.21875 -38.44140625 119.21875 -38.4375 115.75 C-38.45941406 114.6053125 -38.48132812 113.460625 -38.50390625 112.28125 C-37.875 109.25 -37.875 109.25 -35.578125 107.35546875 C-32.21104504 105.97846929 -29.47804066 106.03805643 -25.875 106.25 C-25.875 105.59 -25.875 104.93 -25.875 104.25 C-26.803125 104.064375 -26.803125 104.064375 -27.75 103.875 C-29.875 103.25 -29.875 103.25 -31.875 101.25 C-32.19037716 96.91356399 -32.32397847 94.92346771 -29.875 91.25 C-30.98875 90.1053125 -30.98875 90.1053125 -32.125 88.9375 C-38.72538049 80.89328627 -40.1638209 70.37028437 -39.875 60.25 C-37.35617634 43.22007722 -25.38203011 28.39988095 -13.875 16.25 C-14.36033203 15.12464844 -14.36033203 15.12464844 -14.85546875 13.9765625 C-16.14123518 10.53799941 -16.21242051 7.89414151 -15.875 4.25 C-12.19642339 -1.00510944 -5.72950597 0.03260032 0 0 Z M12.125 46.25 C8.825 48.89 5.525 51.53 2.125 54.25 C2.455 54.91 2.785 55.57 3.125 56.25 C6.755 53.28 10.385 50.31 14.125 47.25 C13.465 46.92 12.805 46.59 12.125 46.25 Z " fill="#777268" transform="translate(74.875,15.75)"/>
<path d="M0 0 C3.37521997 1.76372303 4.9816142 3.82654976 7 7 C8.14427608 8.43873991 9.29008508 9.87626211 10.4375 11.3125 C13 14.71801567 13 14.71801567 13 17 C10.91092841 18.78805263 8.81267751 20.46529547 6.625 22.125 C5.99319824 22.61492432 5.36139648 23.10484863 4.71044922 23.60961914 C1.77357309 25.88679454 -1.18139185 28.13581939 -4.15625 30.36328125 C-5.0534375 31.04777344 -5.950625 31.73226562 -6.875 32.4375 C-7.67679688 33.03433594 -8.47859375 33.63117188 -9.3046875 34.24609375 C-11.46332967 36.07279039 -11.46332967 36.07279039 -11 40 C-9.85353452 41.89661743 -9.85353452 41.89661743 -8 43 C-3.83296257 42.67517526 -1.36522876 40.01670777 1.6875 37.375 C2.74766826 36.46754568 3.80887686 35.56130545 4.87109375 34.65625 C5.39558105 34.20765625 5.92006836 33.7590625 6.46044922 33.296875 C9.88106504 30.41544283 13.44438381 27.71160629 17 25 C21.94795755 27.02886962 22.99414043 30.29599305 25 35 C25.4125 35.94875 25.825 36.8975 26.25 37.875 C28.59659092 47.65246219 26.66744992 57.98208966 21.43359375 66.5703125 C19.7416771 68.84522693 18.00500988 70.99499012 16 73 C14.46759992 73.12965144 12.92935647 73.19114121 11.3918457 73.22460938 C10.41024979 73.24712769 9.42865387 73.269646 8.41731262 73.29284668 C3.90889848 73.36364447 -0.59934366 73.42140017 -5.1081543 73.45996094 C-7.485638 73.4865558 -9.86300659 73.52746699 -12.23999023 73.58300781 C-15.66437517 73.66212924 -19.08655374 73.69527137 -22.51171875 73.71875 C-24.10109505 73.76823792 -24.10109505 73.76823792 -25.72257996 73.81872559 C-32.94414339 73.79918311 -32.94414339 73.79918311 -35.98110962 71.50048828 C-43.37998953 63.05177764 -44.84195538 53.3362909 -44.52734375 42.36328125 C-43.60566508 30.91761514 -35.55645743 20.46607676 -28.40625 11.9296875 C-25.98728736 9.10546616 -25.98728736 9.10546616 -24.21875 6.1953125 C-18.51551279 -2.12622907 -9.23872115 -2.09897058 0 0 Z " fill="#FDFDFD" transform="translate(84,33)"/>
<path d="M0 0 C0 0.33 0 0.66 0 1 C-0.92941406 0.92136719 -1.85882813 0.84273437 -2.81640625 0.76171875 C-6.86593008 0.68148835 -10.1033538 0.86045506 -14 2 C-17.51494709 5.85415995 -19.1934393 10.15053027 -21 15 C-21.40605469 15.98742188 -21.81210937 16.97484375 -22.23046875 17.9921875 C-23.26853319 20.6379402 -24.16584968 23.28377182 -25 26 C-25.33837891 27.06734375 -25.33837891 27.06734375 -25.68359375 28.15625 C-29.14113459 40.93722856 -27.55085573 54.38667305 -21.3984375 66.03125 C-19.99283867 68.40278167 -18.54549464 70.71781959 -17 73 C-32.1404005 74.06218845 -32.1404005 74.06218845 -36.359375 71.65234375 C-37.90523049 69.83954929 -38.96577224 68.14201984 -40 66 C-40.598125 64.989375 -41.19625 63.97875 -41.8125 62.9375 C-45.3083852 54.28978397 -46.01818073 42.65341183 -42.56640625 33.85546875 C-38.93684575 25.85928848 -34.03252431 18.64670488 -28.40625 11.9296875 C-25.98728736 9.10546616 -25.98728736 9.10546616 -24.21875 6.1953125 C-18.22652833 -2.54788367 -9.55645602 -0.827001 0 0 Z " fill="#E9E8E8" transform="translate(84,33)"/>
<path d="M0 0 C0.89847656 -0.020625 1.79695313 -0.04125 2.72265625 -0.0625 C7.6941592 -0.09187372 11.08188873 0.00896343 15.125 3.25 C16.125 4.25 16.125 4.25 16.3125 7.5 C16.13601911 11.0296179 15.51072372 13.07324206 14.125 16.25 C14.81207031 16.98605469 15.49914062 17.72210938 16.20703125 18.48046875 C17.11741501 19.46593571 18.02755854 20.45162462 18.9375 21.4375 C19.83082031 22.40042969 20.72414062 23.36335938 21.64453125 24.35546875 C25.83693465 29.24770642 25.83693465 29.24770642 27.125 32.25 C26.23340887 36.59568121 24.01785591 38.5186126 20.5625 41.125 C19.67433594 41.80304687 18.78617188 42.48109375 17.87109375 43.1796875 C16.51177734 44.20449219 16.51177734 44.20449219 15.125 45.25 C13.4578428 46.58271993 11.79113963 47.91600814 10.125 49.25 C6.375 52.25 6.375 52.25 4.125 52.25 C6.28418033 45.9523907 10.09605082 42.02219703 15.25 37.9375 C16.11882812 37.24011719 16.98765625 36.54273438 17.8828125 35.82421875 C20.125 34.25 20.125 34.25 22.125 34.25 C20.9016714 32.51669818 19.67104266 30.78854767 18.4375 29.0625 C17.41076172 27.61810547 17.41076172 27.61810547 16.36328125 26.14453125 C11.858104 19.97219518 11.858104 19.97219518 5.015625 17.41015625 C-3.72680698 16.97622135 -3.72680698 16.97622135 -11.703125 20.00390625 C-14.08704636 22.60649666 -15.95619298 25.28795809 -17.875 28.25 C-18.71350422 29.36501452 -19.5615833 30.47287835 -20.41796875 31.57421875 C-26.1216225 39.02071399 -30.31659232 46.54202672 -33.875 55.25 C-35.195 55.25 -36.515 55.25 -37.875 55.25 C-36.72528052 40.68688655 -23.47343377 26.38465912 -13.875 16.25 C-14.36033203 15.12464844 -14.36033203 15.12464844 -14.85546875 13.9765625 C-16.14123518 10.53799941 -16.21242051 7.89414151 -15.875 4.25 C-12.19642339 -1.00510944 -5.72950597 0.03260032 0 0 Z " fill="#716B60" transform="translate(74.875,15.75)"/>
<path d="M0 0 C22.44 0 44.88 0 68 0 C68 2.97 68 5.94 68 9 C45.56 9 23.12 9 0 9 C0 6.03 0 3.06 0 0 Z " fill="#FDFDFC" transform="translate(41,127)"/>
<path d="M0 0 C0.66 0.33 1.32 0.66 2 1 C1.67 4.96 1.34 8.92 1 13 C23.44 13 45.88 13 69 13 C68.67 9.7 68.34 6.4 68 3 C66.35 2.67 64.7 2.34 63 2 C63 1.67 63 1.34 63 1 C69.625 -0.25 69.625 -0.25 73 2 C73.43359375 4.93359375 73.43359375 4.93359375 73.4375 8.4375 C73.45683594 9.59121094 73.47617188 10.74492187 73.49609375 11.93359375 C73 15 73 15 71.38354492 16.66738892 C68.23466888 18.42788735 65.96937948 18.38094083 62.3671875 18.38818359 C61.70978577 18.39344055 61.05238403 18.39869751 60.37506104 18.40411377 C58.2081303 18.41728708 56.04193784 18.40858585 53.875 18.3984375 C52.36572123 18.40045902 50.8564434 18.40337111 49.34716797 18.40713501 C46.18642869 18.41155472 43.02594402 18.4051389 39.86523438 18.39111328 C35.81647474 18.37402132 31.76831173 18.38386443 27.71957397 18.40183067 C24.60371415 18.41267821 21.48799546 18.40921778 18.37213135 18.4014473 C16.87941416 18.39944796 15.38668409 18.40189523 13.89398193 18.40888596 C11.80658085 18.41651674 9.72014203 18.40487507 7.6328125 18.38818359 C6.44574707 18.38579681 5.25868164 18.38341003 4.03564453 18.38095093 C0.7196345 17.9648162 -0.68813731 17.38470854 -3 15 C-3.49609375 11.93359375 -3.49609375 11.93359375 -3.4375 8.4375 C-3.43621094 7.28121094 -3.43492188 6.12492188 -3.43359375 4.93359375 C-3.29050781 3.96550781 -3.14742187 2.99742188 -3 2 C-2.01 1.34 -1.02 0.68 0 0 Z " fill="#787367" transform="translate(40,123)"/>
<path d="M0 0 C1.03454819 -0.00637985 2.06909637 -0.0127597 3.13499451 -0.01933289 C4.26099564 -0.02044571 5.38699677 -0.02155853 6.54711914 -0.02270508 C7.69515518 -0.02603348 8.84319122 -0.02936188 10.02601624 -0.03279114 C12.45972288 -0.03786534 14.89343651 -0.04019931 17.32714844 -0.04003906 C21.06269731 -0.04222487 24.79795074 -0.06037379 28.53344727 -0.0793457 C30.89217021 -0.08227958 33.25089456 -0.08426441 35.60961914 -0.08520508 C36.73359604 -0.09239059 37.85757294 -0.09957611 39.01560974 -0.10697937 C40.05331009 -0.10390274 41.09101044 -0.10082611 42.16015625 -0.09765625 C43.07647324 -0.09908127 43.99279022 -0.10050629 44.93687439 -0.10197449 C47.14477539 0.14526367 47.14477539 0.14526367 49.14477539 2.14526367 C48.6090611 5.68097796 48.6090611 5.68097796 47.14477539 7.14526367 C45.52897531 7.24908956 43.90866915 7.2837861 42.28955078 7.29052734 C41.25500259 7.2969072 40.22045441 7.30328705 39.15455627 7.30986023 C37.46555458 7.31152946 37.46555458 7.31152946 35.74243164 7.31323242 C34.5943956 7.31656082 33.44635956 7.31988922 32.26353455 7.32331848 C29.8298279 7.32839269 27.39611427 7.33072666 24.96240234 7.33056641 C21.22685347 7.33275222 17.49160004 7.35090113 13.75610352 7.36987305 C11.39738057 7.37280692 9.03865622 7.37479176 6.67993164 7.37573242 C5.55595474 7.38291794 4.43197784 7.39010345 3.27394104 7.39750671 C2.23624069 7.39443008 1.19854034 7.39135345 0.12939453 7.38818359 C-0.78692245 7.38960861 -1.70323944 7.39103363 -2.64732361 7.39250183 C-4.85522461 7.14526367 -4.85522461 7.14526367 -6.85522461 5.14526367 C-6.0954733 0.13090504 -4.82372041 0.02008369 0 0 Z " fill="#F6F6F5" transform="translate(53.855224609375,109.854736328125)"/>
<path d="M0 0 C6.51786557 3.87548764 8.6123696 12.17187591 10.59375 19.05078125 C12.02054282 25.64969806 11.75350377 31.81433245 10.3125 38.375 C9.3225 38.045 8.3325 37.715 7.3125 37.375 C6.8175 38.365 6.8175 38.365 6.3125 39.375 C6.39951172 37.65216797 6.39951172 37.65216797 6.48828125 35.89453125 C6.83470485 25.98938228 6.69521566 17.10066538 1.3125 8.375 C-0.72164543 7.21894209 -0.72164543 7.21894209 -2.6875 6.375 C-5.22968884 8.43685704 -7.77115434 10.49960383 -10.3125 12.5625 C-11.02535156 13.14064453 -11.73820312 13.71878906 -12.47265625 14.31445312 C-13.17519531 14.88486328 -13.87773438 15.45527344 -14.6015625 16.04296875 C-15.29427246 16.6042749 -15.98698242 17.16558105 -16.70068359 17.74389648 C-18.51753563 19.23546548 -20.29818324 20.76172267 -22.078125 22.296875 C-24.6875 24.375 -24.6875 24.375 -26.8125 24.4375 C-29.1951718 23.08731931 -30.85895473 21.39946084 -32.6875 19.375 C-31.30561547 16.16456118 -29.76328097 14.32563635 -27.0625 12.125 C-26.43085937 11.60421875 -25.79921875 11.0834375 -25.1484375 10.546875 C-24.42527344 9.96679688 -24.42527344 9.96679688 -23.6875 9.375 C-23.0275 9.705 -22.3675 10.035 -21.6875 10.375 C-23.5625 15.125 -23.5625 15.125 -24.6875 17.375 C-23.7696875 16.65054688 -22.851875 15.92609375 -21.90625 15.1796875 C-19.38179703 13.18820136 -16.85081547 11.2053574 -14.31640625 9.2265625 C-12.23637263 7.6008506 -10.18524547 5.95864724 -8.15234375 4.2734375 C-3.49668208 0.48790913 -3.49668208 0.48790913 0 0 Z " fill="#736E63" transform="translate(103.6875,52.625)"/>
<path d="M0 0 C1.25586914 -0.00386719 1.25586914 -0.00386719 2.53710938 -0.0078125 C3.41302734 -0.00007813 4.28894531 0.00765625 5.19140625 0.015625 C6.06345703 0.00789063 6.93550781 0.00015625 7.83398438 -0.0078125 C8.67251953 -0.00523438 9.51105469 -0.00265625 10.375 0 C11.14255615 0.00225586 11.9101123 0.00451172 12.70092773 0.00683594 C14.75390625 0.265625 14.75390625 0.265625 17.75390625 2.265625 C17.00390625 8.015625 17.00390625 8.015625 14.75390625 10.265625 C11.79538516 10.70922572 8.80442174 10.58975152 5.81640625 10.578125 C4.99205078 10.59423828 4.16769531 10.61035156 3.31835938 10.62695312 C2.52494141 10.62759766 1.73152344 10.62824219 0.9140625 10.62890625 C0.18840088 10.63188721 -0.53726074 10.63486816 -1.28491211 10.63793945 C-3.80867582 10.15882335 -4.69618472 9.28059686 -6.24609375 7.265625 C-6.55859375 4.703125 -6.55859375 4.703125 -6.24609375 2.265625 C-3.8442969 -0.13617185 -3.27659368 0.00964413 0 0 Z " fill="#FBFBFA" transform="translate(69.24609375,19.734375)"/>
<path d="M0 0 C6.57096257 5.25677005 9.78089143 13.80344022 11 22 C11.08947582 23.83162259 11.13015112 25.66620048 11.125 27.5 C11.12757812 28.4178125 11.13015625 29.335625 11.1328125 30.28125 C11.00244035 32.95004454 10.59378606 35.39865153 10 38 C9.01 37.67 8.02 37.34 7 37 C6.67 37.66 6.34 38.32 6 39 C6.05800781 37.85144531 6.11601563 36.70289063 6.17578125 35.51953125 C6.54127527 24.97371924 5.42736537 17.66762406 1 8 C0.62853237 6.67678396 0.27750542 5.34606078 0 4 C-0.99 4 -1.98 4 -3 4 C-2.67 3.01 -2.34 2.02 -2 1 C-1.34 0.67 -0.68 0.34 0 0 Z " fill="#6D675C" transform="translate(104,53)"/>
<path d="M0 0 C14.19 0 28.38 0 43 0 C43 0.99 43 1.98 43 3 C28.48 3 13.96 3 -1 3 C-0.67 2.01 -0.34 1.02 0 0 Z " fill="#E3E3E3" transform="translate(54,120)"/>
<path d="M0 0 C2.125 0.375 2.125 0.375 4 1 C3.360625 1.268125 2.72125 1.53625 2.0625 1.8125 C-0.33131686 2.88667752 -0.33131686 2.88667752 -1 6 C-0.07380859 6.09087891 -0.07380859 6.09087891 0.87109375 6.18359375 C2.6409531 6.35869399 4.41046872 6.53729166 6.1796875 6.71875 C7.99601169 6.89987928 9.81374725 7.06761105 11.6328125 7.21875 C13.76251111 7.41049135 15.88317849 7.69759693 18 8 C18.33 8.66 18.66 9.32 19 10 C16.06195004 10.08086376 13.12611925 10.1404283 10.1875 10.1875 C8.93743164 10.22520508 8.93743164 10.22520508 7.66210938 10.26367188 C6.45844727 10.27817383 6.45844727 10.27817383 5.23046875 10.29296875 C4.12288208 10.31653442 4.12288208 10.31653442 2.99291992 10.34057617 C0.42918801 9.9024522 -0.43782853 9.04349409 -2 7 C-2.3125 4.4375 -2.3125 4.4375 -2 2 C-1.34 1.34 -0.68 0.68 0 0 Z " fill="#E3E2E2" transform="translate(65,20)"/>
<path d="M0 0 C0.99 0.33 1.98 0.66 3 1 C1.515 2.485 1.515 2.485 0 4 C0.99 4 1.98 4 3 4 C1.71170846 6.57658308 0.58096973 6.78120874 -2 8 C-3.67334039 8.98879205 -5.34151823 9.98648336 -7 11 C-7.66 10.34 -8.32 9.68 -9 9 C-8.06725891 7.87105124 -7.12859878 6.74699124 -6.1875 5.625 C-5.66542969 4.99851562 -5.14335938 4.37203125 -4.60546875 3.7265625 C-3 2 -3 2 0 0 Z " fill="#767065" transform="translate(101,53)"/>
<path d="M0 0 C0.66 0.33 1.32 0.66 2 1 C1.67 4.63 1.34 8.26 1 12 C0.67 12 0.34 12 0 12 C0 9.36 0 6.72 0 4 C-0.99 4.33 -1.98 4.66 -3 5 C-2.625 3.0625 -2.625 3.0625 -2 1 C-1.34 0.67 -0.68 0.34 0 0 Z " fill="#78736A" transform="translate(40,123)"/>
<path d="M0 0 C0.99 0.33 1.98 0.66 3 1 C1.7260411 3.03833424 0.38938077 5.03852126 -1 7 C-1.66 7 -2.32 7 -3 7 C-1.125 2.25 -1.125 2.25 0 0 Z " fill="#6E685D" transform="translate(82,61)"/>
</svg>
