<?xml version="1.0" encoding="UTF-8"?>
<svg version="1.1" xmlns="http://www.w3.org/2000/svg" width="150" height="150">
<path d="M0 0 C2 3 2 3 1.6875 5.5625 C1 8 1 8 0 10 C2.475 10.495 2.475 10.495 5 11 C5 16.28 5 21.56 5 27 C3.35 27 1.7 27 0 27 C0.66 27.99 1.32 28.98 2 30 C2 30.99 2 31.98 2 33 C2.639375 33.309375 3.27875 33.61875 3.9375 33.9375 C6 35 6 35 7 36 C7.04080783 37.99958364 7.04254356 40.00045254 7 42 C7.73863281 42.02578125 8.47726563 42.0515625 9.23828125 42.078125 C18.09099476 42.57306705 25.84523269 44.06722307 33.1875 49.25 C35.59676477 52.9054362 35.62299989 55.79108479 35 60 C33.65763651 64.21760295 31.93767081 68.24986427 30.1875 72.3125 C25.02304129 83.82647893 25.02304129 83.82647893 22 96 C23.76440022 98.83132801 23.76440022 98.83132801 26 101 C25.93353155 104.32342272 25.63865125 106.19474408 23.5625 108.8125 C22 110 22 110 20 111 C20.99 111.391875 21.98 111.78375 23 112.1875 C24.6484375 113.2578125 24.6484375 113.2578125 26 115 C26.77637539 119.39946054 26.8804975 123.61466503 26 128 C23.68083911 130.37624162 22.28117336 130.96471482 18.96435547 131.38095093 C17.77729004 131.38333771 16.59022461 131.38572449 15.3671875 131.38818359 C14.70978577 131.39344055 14.05238403 131.39869751 13.37506104 131.40411377 C11.2081303 131.41728708 9.04193784 131.40858585 6.875 131.3984375 C5.36572123 131.40045902 3.8564434 131.40337111 2.34716797 131.40713501 C-0.81357131 131.41155472 -3.97405598 131.4051389 -7.13476562 131.39111328 C-11.18352526 131.37402132 -15.23168827 131.38386443 -19.28042603 131.40183067 C-22.39628585 131.41267821 -25.51200454 131.40921778 -28.62786865 131.4014473 C-30.12058584 131.39944796 -31.61331591 131.40189523 -33.10601807 131.40888596 C-35.19341915 131.41651674 -37.27985797 131.40487507 -39.3671875 131.38818359 C-40.55425293 131.38579681 -41.74131836 131.38341003 -42.96435547 131.38095093 C-46.28117336 130.96471482 -47.68083911 130.37624162 -50 128 C-50.8804975 123.61466503 -50.77637539 119.39946054 -50 115 C-48.13872908 112.60078951 -46.89096125 112.14433883 -44 111 C-44.928125 110.62875 -44.928125 110.62875 -45.875 110.25 C-48.46561326 108.72610985 -49.12444207 107.86546233 -50 105 C-49.74025696 100.75753028 -49.10605509 98.82140314 -46 96 C-48.88723373 86.06125311 -52.24313819 76.48950037 -56.40820312 67.00488281 C-58.63785342 61.72176709 -59.55186542 57.74441733 -59 52 C-55.3215933 46.41896915 -49.23550289 44.58664196 -43 43 C-39.00098112 42.44586343 -35.03365756 42.14079084 -31 42 C-31.02835938 41.04867187 -31.05671875 40.09734375 -31.0859375 39.1171875 C-31 36 -31 36 -29.625 34.125 C-28 33 -28 33 -26 33 C-25.855625 32.38125 -25.71125 31.7625 -25.5625 31.125 C-25 29 -25 29 -24 27 C-25.65 27 -27.3 27 -29 27 C-29 21.72 -29 16.44 -29 11 C-27.35 10.67 -25.7 10.34 -24 10 C-24.350625 9.443125 -24.70125 8.88625 -25.0625 8.3125 C-26.24408113 5.3979332 -26.00932746 3.95034182 -25 1 C-17.91311335 -3.7245911 -7.72199026 -3.05662114 0 0 Z " fill="#777268" transform="translate(87,10)"/>
<path d="M0 0 C3.19499639 0.00848959 6.38818798 -0.02028975 9.58300781 -0.05200195 C39.5811453 -0.15601243 39.5811453 -0.15601243 47.46582031 7.44604492 C48.49653298 13.05770276 46.6114933 16.40015085 44.03613281 21.16088867 C39.5813605 30.48044965 36.72775341 40.66024561 33.46582031 50.44604492 C14.32582031 50.44604492 -4.81417969 50.44604492 -24.53417969 50.44604492 C-26.51417969 44.50604492 -28.49417969 38.56604492 -30.53417969 32.44604492 C-32.2900385 27.96831132 -34.09671656 23.53766306 -35.98339844 19.1159668 C-39.22260264 11.30560763 -39.22260264 11.30560763 -38.53417969 7.44604492 C-28.79554961 -1.75155015 -12.33792274 -0.04991679 0 0 Z " fill="#FEFEFD" transform="translate(70.5341796875,55.553955078125)"/>
<path d="M0 0 C22.44 0 44.88 0 68 0 C68 2.97 68 5.94 68 9 C45.56 9 23.12 9 0 9 C0 6.03 0 3.06 0 0 Z " fill="#FDFDFC" transform="translate(41,127)"/>
<path d="M0 0 C5.94 0 11.88 0 18 0 C17.16687441 4.99875355 16.34505694 7.71772212 14 12 C16.64 12 19.28 12 22 12 C22 14.64 22 17.28 22 20 C19.36 20 16.72 20 14 20 C14.515625 20.9075 15.03125 21.815 15.5625 22.75 C17 26 17 26 16 30 C11.38 30 6.76 30 2 30 C0.80843708 25.23374833 1.6584054 24.12120649 4 20 C1.36 20 -1.28 20 -4 20 C-4 17.36 -4 14.72 -4 12 C-1.36 12 1.28 12 4 12 C3.71125 11.46890625 3.4225 10.9378125 3.125 10.390625 C2.75375 9.68421875 2.3825 8.9778125 2 8.25 C1.62875 7.55390625 1.2575 6.8578125 0.875 6.140625 C0 4 0 4 0 0 Z " fill="#F6F6F6" transform="translate(66,13)"/>
<path d="M0 0 C21.12 0 42.24 0 64 0 C64.495 2.475 64.495 2.475 65 5 C62.29658085 7.70341915 60.89415955 7.25327453 57.11328125 7.25878906 C55.87860107 7.26509338 54.6439209 7.27139771 53.37182617 7.27789307 C52.018716 7.27431338 50.66560713 7.27021145 49.3125 7.265625 C47.93009371 7.26697175 46.54768787 7.26891236 45.1652832 7.27142334 C42.26671849 7.27437418 39.36827697 7.27007836 36.46972656 7.26074219 C32.75039363 7.24934755 29.03134932 7.25590725 25.31202698 7.26788712 C22.45704973 7.27510688 19.60214115 7.27281728 16.74716187 7.26763153 C15.37559983 7.26629535 14.00403161 7.26794166 12.63247681 7.27259064 C10.7172253 7.27765748 8.80195199 7.26856831 6.88671875 7.25878906 C5.79576904 7.25719788 4.70481934 7.25560669 3.58081055 7.25396729 C1 7 1 7 -1 5 C-0.67 3.35 -0.34 1.7 0 0 Z " fill="#F6F6F5" transform="translate(43,110)"/>
<path d="M0 0 C3.96074927 0.56582132 6.72259306 1.69695729 10 4 C12.53676717 7.80515075 12.66494695 10.60362021 12 15 C10.65620989 19.21717473 8.93768802 23.24982434 7.1875 27.3125 C3.87398525 35.11651262 0.99483506 42.74830978 -1 51 C-0.01 51.99 0.98 52.98 2 54 C1.01 56.97 1.01 56.97 0 60 C-0.79987335 58.78290092 -0.79987335 58.78290092 -1.61590576 57.54121399 C-3.76485348 54.77453416 -3.76485348 54.77453416 -6.83477783 54.36076355 C-7.92731873 54.35410172 -9.01985962 54.34743988 -10.14550781 54.34057617 C-12.00698456 54.31111153 -12.00698456 54.31111153 -13.90606689 54.28105164 C-15.25508772 54.28449481 -16.60410725 54.28847986 -17.953125 54.29296875 C-19.33748548 54.27985015 -20.72182683 54.2645454 -22.10614014 54.24714661 C-25.74269713 54.20730104 -29.37875339 54.19710662 -33.01550293 54.19311523 C-36.72923976 54.18378271 -40.44268249 54.14636861 -44.15625 54.11132812 C-51.43750249 54.0467572 -58.71845475 54.01351335 -66 54 C-66 52.35 -66 50.7 -66 49 C-65.67 49.99 -65.34 50.98 -65 52 C-45.2 52 -25.4 52 -5 52 C-3.88315719 47.36956027 -3.88315719 47.36956027 -4.07202148 44.0637207 C-3.9898737 40.56923755 -3.16686547 38.20855129 -1.84765625 34.98046875 C-1.40099609 33.87638672 -0.95433594 32.77230469 -0.49414062 31.63476562 C-0.02169922 30.49716797 0.45074219 29.35957031 0.9375 28.1875 C1.40607422 27.03056641 1.87464844 25.87363281 2.35742188 24.68164062 C5.83177548 16.16822452 5.83177548 16.16822452 7 15 C7.04092937 12.66702567 7.04241723 10.33294775 7 8 C2.545 6.02 2.545 6.02 -2 4 C-1.34 2.68 -0.68 1.36 0 0 Z " fill="#736D63" transform="translate(110,55)"/>
<path d="M0 0 C3.07185043 1.53592521 5.0969839 2.77869138 7.6875 4.875 C14.20716126 9.82220121 20.80531295 12.64770504 29 13 C30.17369141 13.05994141 30.17369141 13.05994141 31.37109375 13.12109375 C42.79581964 13.4240896 53.77886104 10.80404698 62.87109375 3.49609375 C64.36931801 2.05167408 64.36931801 2.05167408 66 0 C66.99 0.495 66.99 0.495 68 1 C66.35 5.95 64.7 10.9 63 16 C43.86 16 24.72 16 5 16 C3.35 10.72 1.7 5.44 0 0 Z " fill="#EBECEC" transform="translate(41,90)"/>
<path d="M0 0 C0.99 0.66 1.98 1.32 3 2 C3.1875 5.125 3.1875 5.125 3 8 C3.81984375 8.06058594 4.6396875 8.12117188 5.484375 8.18359375 C6.56203125 8.26738281 7.6396875 8.35117187 8.75 8.4375 C9.81734375 8.51871094 10.8846875 8.59992187 11.984375 8.68359375 C14.43679962 8.94090773 16.63921291 9.31812218 19 10 C19.495 11.98 19.495 11.98 20 14 C18.58344207 14.0272415 17.16672955 14.04650467 15.75 14.0625 C14.56664063 14.07990234 14.56664063 14.07990234 13.359375 14.09765625 C11 14 11 14 9.10467529 13.50672913 C6.99280188 12.99826696 5.13371854 12.84394815 2.96582031 12.79467773 C1.79505951 12.7647599 1.79505951 12.7647599 0.60064697 12.73423767 C-0.23178528 12.71752518 -1.06421753 12.70081268 -1.921875 12.68359375 C-2.78186096 12.66281265 -3.64184692 12.64203156 -4.52789307 12.62062073 C-7.26851598 12.55536261 -10.00923275 12.49635083 -12.75 12.4375 C-14.6106867 12.39429219 -16.47136398 12.35067718 -18.33203125 12.30664062 C-22.88792523 12.19970558 -27.4439134 12.09837149 -32 12 C-32 11.67 -32 11.34 -32 11 C-22.1 11 -12.2 11 -2 11 C-2 10.34 -2 9.68 -2 9 C-11.24 9 -20.48 9 -30 9 C-30.33 7.35 -30.66 5.7 -31 4 C-28.24784678 1.24784678 -26.56532743 1.70453744 -22.71484375 1.62109375 C-21.46251953 1.58693359 -20.21019531 1.55277344 -18.91992188 1.51757812 C-16.94862305 1.47793945 -16.94862305 1.47793945 -14.9375 1.4375 C-12.34234902 1.37785594 -9.74728444 1.31427612 -7.15234375 1.24609375 C-5.99726318 1.22216553 -4.84218262 1.1982373 -3.65209961 1.17358398 C-1.07802268 1.29782756 -1.07802268 1.29782756 0 0 Z " fill="#807B72" transform="translate(91,44)"/>
<path d="M0 0 C1.32 0 2.64 0 4 0 C3.82082031 0.61488281 3.64164062 1.22976562 3.45703125 1.86328125 C3.13798828 3.07564453 3.13798828 3.07564453 2.8125 4.3125 C2.48185547 5.51326172 2.48185547 5.51326172 2.14453125 6.73828125 C1.73805495 9.08969364 1.73805495 9.08969364 3.44921875 10.79296875 C3.96097656 11.19128906 4.47273438 11.58960937 5 12 C4.34 13.98 3.68 15.96 3 18 C2.4667511 17.18860062 1.9335022 16.37720123 1.38409424 15.54121399 C-0.76485348 12.77453416 -0.76485348 12.77453416 -3.83477783 12.36076355 C-4.92731873 12.35410172 -6.01985962 12.34743988 -7.14550781 12.34057617 C-9.00698456 12.31111153 -9.00698456 12.31111153 -10.90606689 12.28105164 C-12.25508772 12.28449481 -13.60410725 12.28847986 -14.953125 12.29296875 C-16.33748548 12.27985015 -17.72182683 12.2645454 -19.10614014 12.24714661 C-22.74269713 12.20730104 -26.37875339 12.19710662 -30.01550293 12.19311523 C-33.72923976 12.18378271 -37.44268249 12.14636861 -41.15625 12.11132812 C-48.43750249 12.0467572 -55.71845475 12.01351335 -63 12 C-63 10.35 -63 8.7 -63 7 C-62.67 7.99 -62.34 8.98 -62 10 C-42.2 10 -22.4 10 -2 10 C-1.34 6.7 -0.68 3.4 0 0 Z " fill="#625C52" transform="translate(107,97)"/>
<path d="M0 0 C1.21880859 -0.01224609 2.43761719 -0.02449219 3.69335938 -0.03710938 C5.43649414 -0.04000977 5.43649414 -0.04000977 7.21484375 -0.04296875 C8.28726318 -0.04707764 9.35968262 -0.05118652 10.46459961 -0.05541992 C13.0625 0.1875 13.0625 0.1875 15.0625 2.1875 C15.0625 3.5075 15.0625 4.8275 15.0625 6.1875 C5.1625 6.1875 -4.7375 6.1875 -14.9375 6.1875 C-13.18591051 -2.57044745 -7.94480943 0.00418809 0 0 Z " fill="#ECEBEA" transform="translate(74.9375,45.8125)"/>
<path d="M0 0 C-0.33 2.31 -0.66 4.62 -1 7 C12.86 7.495 12.86 7.495 27 8 C27 8.66 27 9.32 27 10 C26.13834229 10.02505615 25.27668457 10.0501123 24.38891602 10.07592773 C21.15151571 10.17181688 17.91423661 10.27099786 14.67700195 10.37231445 C13.28348651 10.41527354 11.8899315 10.45697055 10.49633789 10.49731445 C-2.10130576 10.13065242 -2.10130576 10.13065242 -14 13 C-15.54023996 13.06950541 -17.08334988 13.08452357 -18.625 13.0625 C-19.85089844 13.04896484 -19.85089844 13.04896484 -21.1015625 13.03515625 C-22.04128906 13.01775391 -22.04128906 13.01775391 -23 13 C-22.67 11.68 -22.34 10.36 -22 9 C-20.27192682 8.66104344 -18.54248026 8.32908475 -16.8125 8 C-15.84957031 7.814375 -14.88664062 7.62875 -13.89453125 7.4375 C-11.2065794 7.03122388 -8.71228981 6.92066428 -6 7 C-5.896875 6.21625 -5.79375 5.4325 -5.6875 4.625 C-4.82572663 1.33459258 -3.53157582 0 0 0 Z " fill="#6C665C" transform="translate(62,45)"/>
<path d="M0 0 C17.16 0 34.32 0 52 0 C52 0.99 52 1.98 52 3 C34.84 3 17.68 3 0 3 C0 2.01 0 1.02 0 0 Z " fill="#E3E3E2" transform="translate(49,120)"/>
<path d="M0 0 C0.66 0.99 1.32 1.98 2 3 C4.29661364 3.47647692 4.29661364 3.47647692 7.00048828 3.43237305 C8.04141632 3.45216721 9.08234436 3.47196136 10.15481567 3.49235535 C11.28192963 3.49874527 12.40904358 3.50513519 13.5703125 3.51171875 C15.29735916 3.53864555 15.29735916 3.53864555 17.05929565 3.56611633 C20.74782616 3.6204316 24.43622573 3.65418359 28.125 3.6875 C30.62111206 3.72065427 33.11720679 3.75514213 35.61328125 3.79101562 C41.74207008 3.87617017 47.87087543 3.94442986 54 4 C53.67 4.66 53.34 5.32 53 6 C33.86 6 14.72 6 -5 6 C-5 5.67 -5 5.34 -5 5 C-3.35 5 -1.7 5 0 5 C0 3.35 0 1.7 0 0 Z " fill="#655F55" transform="translate(47,120)"/>
<path d="M0 0 C1.32 0 2.64 0 4 0 C3.82082031 0.61488281 3.64164062 1.22976562 3.45703125 1.86328125 C3.13798828 3.07564453 3.13798828 3.07564453 2.8125 4.3125 C2.59207031 5.11300781 2.37164062 5.91351563 2.14453125 6.73828125 C1.73805495 9.08969364 1.73805495 9.08969364 3.44921875 10.79296875 C3.96097656 11.19128906 4.47273438 11.58960937 5 12 C4.34 13.98 3.68 15.96 3 18 C-1 13.25 -1 13.25 -1 11 C-1.66 10.67 -2.32 10.34 -3 10 C-2.690625 9.278125 -2.38125 8.55625 -2.0625 7.8125 C-1.07439461 5.19692691 -0.4712246 2.74881018 0 0 Z " fill="#6A6858" transform="translate(107,97)"/>
<path d="M0 0 C1.65 0 3.3 0 5 0 C5.33 0.99 5.66 1.98 6 3 C3.69 3.33 1.38 3.66 -1 4 C-0.67 2.68 -0.34 1.36 0 0 Z " fill="#6B665B" transform="translate(40,54)"/>
<path d="M0 0 C1.32 0 2.64 0 4 0 C4.33 1.32 4.66 2.64 5 4 C3.35 4 1.7 4 0 4 C0 2.68 0 1.36 0 0 Z " fill="#6C665B" transform="translate(106,54)"/>
</svg>
