<?xml version="1.0" encoding="UTF-8"?>
<svg version="1.1" xmlns="http://www.w3.org/2000/svg" width="150" height="150">
<path d="M0 0 C1.875 1.5625 1.875 1.5625 3 4 C3 6.31 3 8.62 3 11 C7.62 11 12.24 11 17 11 C17.29132813 12.05058594 17.58265625 13.10117187 17.8828125 14.18359375 C20.97170225 24.91671852 24.73493231 36.30358771 35.08984375 42.1875 C37.04132392 43.17524392 39.00134298 44.11225904 41 45 C42.32339112 58.31560199 42.32339112 58.31560199 39.48828125 64.06640625 C36.06196962 68.01204792 33.51413861 69.78187488 28.28515625 70.53515625 C24.8051137 70.55988752 21.4553079 70.39812225 18 70 C18 69.01 18 68.02 18 67 C14.04 67 10.08 67 6 67 C14.08058468 78.04767437 22.248043 89.01996414 30.58007812 99.87963867 C32.39423651 102.24748373 34.19840811 104.62258781 36 107 C36.51353027 107.66418945 37.02706055 108.32837891 37.55615234 109.01269531 C41.13339701 113.76798334 41.77718393 116.17112051 41 122 C39.18836733 124.67431489 38.12238923 124.95920359 35 126 C32.74219482 126.10490817 30.48139825 126.14868272 28.22119141 126.16113281 C27.53628128 126.16609772 26.85137115 126.17106262 26.14570618 126.17617798 C23.88098138 126.19077715 21.61632661 126.19759766 19.3515625 126.203125 C17.77599079 126.20887809 16.20041909 126.21463581 14.62484741 126.22039795 C11.32118402 126.2309014 8.01754492 126.23674842 4.71386719 126.24023438 C0.4847611 126.2457192 -3.74402305 126.26974952 -7.97302818 126.29820633 C-11.2278639 126.31684765 -14.48262228 126.32203909 -17.73750687 126.32357025 C-19.29640082 126.3265937 -20.85529351 126.3346119 -22.41413498 126.34775543 C-24.59713871 126.3648485 -26.77935848 126.36292826 -28.96240234 126.35644531 C-30.20355804 126.36009094 -31.44471375 126.36373657 -32.72348022 126.36749268 C-36.28313358 125.96824389 -38.15692016 125.13765937 -41 123 C-42.16259766 120.9855957 -42.16259766 120.9855957 -42.9140625 118.67578125 C-43.19886475 117.82097168 -43.48366699 116.96616211 -43.77709961 116.08544922 C-44.1968103 114.71283936 -44.1968103 114.71283936 -44.625 113.3125 C-44.92349854 112.36133301 -45.22199707 111.41016602 -45.52954102 110.43017578 C-46.38694625 107.62870607 -47.20414031 104.81951334 -48 102 C-48.19932129 101.30148926 -48.39864258 100.60297852 -48.60400391 99.88330078 C-54.87890327 76.72693677 -52.65136392 50.66944977 -41.1640625 29.62890625 C-38.32247367 24.70719165 -35.07759357 19.98187541 -31 16 C-30.34 16 -29.68 16 -29 16 C-28.67 15.01 -28.34 14.02 -28 13 C-20.70869871 6.68698652 -9.96637751 -0.93170101 0 0 Z " fill="#FCFCFC" transform="translate(78,15)"/>
<path d="M0 0 C1.875 1.5625 1.875 1.5625 3 4 C3 6.31 3 8.62 3 11 C7.62 11 12.24 11 17 11 C17.29132813 12.05058594 17.58265625 13.10117187 17.8828125 14.18359375 C20.97170225 24.91671852 24.73493231 36.30358771 35.08984375 42.1875 C37.04132392 43.17524392 39.00134298 44.11225904 41 45 C42.32339112 58.31560199 42.32339112 58.31560199 39.48828125 64.06640625 C36.06196962 68.01204792 33.51413861 69.78187488 28.28515625 70.53515625 C24.8051137 70.55988752 21.4553079 70.39812225 18 70 C18 69.01 18 68.02 18 67 C14.04 67 10.08 67 6 67 C14.08058468 78.04767437 22.248043 89.01996414 30.58007812 99.87963867 C32.39423651 102.24748373 34.19840811 104.62258781 36 107 C36.51353027 107.66418945 37.02706055 108.32837891 37.55615234 109.01269531 C41.13339701 113.76798334 41.77718393 116.17112051 41 122 C39.18836733 124.67431489 38.12238923 124.95920359 35 126 C32.74219482 126.10490817 30.48139825 126.14868272 28.22119141 126.16113281 C27.53628128 126.16609772 26.85137115 126.17106262 26.14570618 126.17617798 C23.88098138 126.19077715 21.61632661 126.19759766 19.3515625 126.203125 C17.77599079 126.20887809 16.20041909 126.21463581 14.62484741 126.22039795 C11.32118402 126.2309014 8.01754492 126.23674842 4.71386719 126.24023438 C0.4847611 126.2457192 -3.74402305 126.26974952 -7.97302818 126.29820633 C-11.2278639 126.31684765 -14.48262228 126.32203909 -17.73750687 126.32357025 C-19.29640082 126.3265937 -20.85529351 126.3346119 -22.41413498 126.34775543 C-24.59713871 126.3648485 -26.77935848 126.36292826 -28.96240234 126.35644531 C-30.20355804 126.36009094 -31.44471375 126.36373657 -32.72348022 126.36749268 C-36.28313358 125.96824389 -38.15692016 125.13765937 -41 123 C-42.16259766 120.9855957 -42.16259766 120.9855957 -42.9140625 118.67578125 C-43.19886475 117.82097168 -43.48366699 116.96616211 -43.77709961 116.08544922 C-44.1968103 114.71283936 -44.1968103 114.71283936 -44.625 113.3125 C-44.92349854 112.36133301 -45.22199707 111.41016602 -45.52954102 110.43017578 C-46.38694625 107.62870607 -47.20414031 104.81951334 -48 102 C-48.19932129 101.30148926 -48.39864258 100.60297852 -48.60400391 99.88330078 C-54.87890327 76.72693677 -52.65136392 50.66944977 -41.1640625 29.62890625 C-38.32247367 24.70719165 -35.07759357 19.98187541 -31 16 C-30.34 16 -29.68 16 -29 16 C-28.67 15.01 -28.34 14.02 -28 13 C-20.70869871 6.68698652 -9.96637751 -0.93170101 0 0 Z M-10.125 6.4375 C-11.01445313 6.88996094 -11.90390625 7.34242187 -12.8203125 7.80859375 C-14.91407506 8.8203006 -14.91407506 8.8203006 -16 10 C-16.09938863 11.76853292 -16.12969223 13.54118275 -16.125 15.3125 C-16.12757812 16.27800781 -16.13015625 17.24351563 -16.1328125 18.23828125 C-16.01628167 20.66143705 -15.69241648 22.68644969 -15 25 C-15.66 24.67 -16.32 24.34 -17 24 C-17.6328125 21.49609375 -17.6328125 21.49609375 -18.125 18.4375 C-18.29257812 17.42558594 -18.46015625 16.41367187 -18.6328125 15.37109375 C-18.75398438 14.58863281 -18.87515625 13.80617188 -19 13 C-19.99 13.33 -20.98 13.66 -22 14 C-22.57408799 23.05783277 -21.63035989 31.51925978 -20.125 40.4375 C-19.95129883 41.46746094 -19.77759766 42.49742188 -19.59863281 43.55859375 C-18.67299331 48.81472049 -17.59091453 53.90477373 -16 59 C-16.66 58.67 -17.32 58.34 -18 58 C-20.79884111 49.19066304 -21.90514218 39.81369628 -23.1875 30.6875 C-23.36474609 29.45837891 -23.54199219 28.22925781 -23.72460938 26.96289062 C-24.15463941 23.97592525 -24.57969848 20.988347 -25 18 C-26.98 18.99 -26.98 18.99 -29 20 C-29.22897182 27.46921878 -28.35904911 34.50489106 -27.1875 41.875 C-27.02185547 42.98230469 -26.85621094 44.08960938 -26.68554688 45.23046875 C-25.58311921 52.31096642 -24.04572712 59.13263286 -22 66 C-24 65 -24 65 -24.96484375 62.28125 C-28.20915277 49.66883584 -29.65668547 36.93791417 -31 24 C-34.04378837 26.57413814 -34.04378837 26.57413814 -35.4543457 30.17382812 C-35.2012454 36.72593685 -34.36806996 43.05194154 -33.1875 49.5 C-33.02185547 50.46808594 -32.85621094 51.43617187 -32.68554688 52.43359375 C-31.55679492 58.78016136 -29.99150775 64.87021803 -28 71 C-28.99 71 -29.98 71 -31 71 C-31.12375 69.88625 -31.2475 68.7725 -31.375 67.625 C-31.75431705 64.59046358 -32.2513616 61.61846433 -32.875 58.625 C-34.49981859 50.79632861 -35.71088804 42.8893652 -37 35 C-37.99 35.33 -38.98 35.66 -40 36 C-40.47248139 48.17952023 -39.99506206 60.66338089 -35 72 C-37.86373605 69.60269281 -38.52786135 67.75527162 -39.16796875 64.11328125 C-39.33876953 63.17548828 -39.50957031 62.23769531 -39.68554688 61.27148438 C-39.93401367 59.80678711 -39.93401367 59.80678711 -40.1875 58.3125 C-40.36474609 57.32443359 -40.54199219 56.33636719 -40.72460938 55.31835938 C-41.16034822 52.88057721 -41.58501819 50.4413865 -42 48 C-42.66 48 -43.32 48 -44 48 C-52.16273854 66.50220736 -47.0441005 94.10716613 -40.5 112.4375 C-38.36041884 117.59553147 -38.36041884 117.59553147 -35 122 C-32.83280414 122.10483132 -30.66215113 122.13856845 -28.49243164 122.14526367 C-27.81274826 122.14862228 -27.13306488 122.1519809 -26.43278503 122.15544128 C-24.17522376 122.16497745 -21.91773644 122.16689573 -19.66015625 122.16796875 C-18.09695911 122.17117951 -16.53376229 122.17454344 -14.9705658 122.17805481 C-11.68943586 122.18405278 -8.4083323 122.18589403 -5.12719727 122.18530273 C-0.91574556 122.18520108 3.29553767 122.19885364 7.50694942 122.21607494 C10.73678875 122.2271751 13.9665871 122.22922256 17.19644356 122.22869301 C18.7494318 122.22987612 20.30242099 122.2343163 21.85539055 122.24202538 C24.02472723 122.25178539 26.19369492 122.24896328 28.36303711 122.24291992 C30.21716469 122.24505745 30.21716469 122.24505745 32.10874939 122.24723816 C35.12770968 122.30181627 35.12770968 122.30181627 37 120 C37.42015384 116.98389567 37.30455026 115.4845932 35.671875 112.88671875 C34.72054687 111.79810547 34.72054687 111.79810547 33.75 110.6875 C30.02966659 106.26919254 26.50902531 101.75700315 23.0625 97.125 C22.02865974 95.73957296 20.99480567 94.35415622 19.9609375 92.96875 C19.46045898 92.29714844 18.95998047 91.62554687 18.44433594 90.93359375 C17.12719377 89.17027969 15.80391541 87.41188411 14.4765625 85.65625 C10.2969016 80.12140894 6.2517512 74.5416401 2.41015625 68.765625 C1.94480469 68.18296875 1.47945312 67.6003125 1 67 C0.34 67 -0.32 67 -1 67 C-0.67 66.01 -0.34 65.02 0 64 C7.26 63.67 14.52 63.34 22 63 C22 63.99 22 64.98 22 66 C24.64 66 27.28 66 30 66 C30.4640625 65.0409375 30.4640625 65.0409375 30.9375 64.0625 C32.67244692 60.69466187 33.13987831 60.93006084 37 59 C37 55.37 37 51.74 37 48 C35.329375 47.01 35.329375 47.01 33.625 46 C32.68527344 45.443125 32.68527344 45.443125 31.7265625 44.875 C30.02527333 43.84931652 30.02527333 43.84931652 28 44 C27.67 43.01 27.34 42.02 27 41 C26.34 41 25.68 41 25 41 C24.7525 40.50242188 24.505 40.00484375 24.25 39.4921875 C23.21605404 37.43075775 22.17240173 35.37491058 21.125 33.3203125 C20.41655698 31.92193056 19.70822685 30.52349143 19 29.125 C18.64421875 28.43019531 18.2884375 27.73539063 17.921875 27.01953125 C15.9350537 23.08295621 14.27558277 19.23865525 13 15 C11.06257659 14.97296619 9.12504521 14.95358875 7.1875 14.9375 C5.56908203 14.92009766 5.56908203 14.92009766 3.91796875 14.90234375 C0.93487831 14.86375234 0.93487831 14.86375234 -2 16 C-2 12.04 -2 8.08 -2 4 C-5.46274872 4 -7.07032011 4.86563119 -10.125 6.4375 Z " fill="#6F695E" transform="translate(78,15)"/>
<path d="M0 0 C0.33 0 0.66 0 1 0 C1 1.98 1 3.96 1 6 C1.66 6 2.32 6 3 6 C3.14695312 7.00675781 3.29390625 8.01351562 3.4453125 9.05078125 C6.51865856 28.8110643 11.84773599 50.90180653 27 65 C30.49336818 67.32891212 31.86007865 67.23551143 35.98046875 67.1953125 C37.14384766 67.18886719 38.30722656 67.18242187 39.50585938 67.17578125 C40.72080078 67.15902344 41.93574219 67.14226562 43.1875 67.125 C45.02731445 67.11146484 45.02731445 67.11146484 46.90429688 67.09765625 C49.93639295 67.07406017 52.96809938 67.04113841 56 67 C57.29753279 63.41310138 58.25371572 60.31684526 58.265625 56.49609375 C58.26949219 55.67850586 58.27335937 54.86091797 58.27734375 54.01855469 C58.26832031 53.16680664 58.25929687 52.31505859 58.25 51.4375 C58.24419922 50.11927246 58.24419922 50.11927246 58.23828125 48.77441406 C58.14510833 41.70103686 57.41849411 34.94048903 56 28 C60.08768634 31.87136718 63.42134281 36.03051779 66.75 40.5625 C67.80337312 41.98177996 68.85675867 43.40105069 69.91015625 44.8203125 C70.42852051 45.52188477 70.94688477 46.22345703 71.48095703 46.94628906 C73.70444586 49.9523945 75.94488536 52.9456524 78.1875 55.9375 C78.90292969 56.89527344 79.61835937 57.85304687 80.35546875 58.83984375 C81.82281854 60.86758385 81.82281854 60.86758385 83 62 C83.1875 64.4375 83.1875 64.4375 83 67 C80.17751332 69.82248668 78.34898541 69.25984697 74.39477539 69.2746582 C73.71655228 69.27976913 73.03832916 69.28488007 72.33955383 69.29014587 C70.09216547 69.30407348 67.8450827 69.30308274 65.59765625 69.30078125 C64.03828313 69.30466657 62.47891108 69.3090009 60.91954041 69.31376648 C57.64855522 69.32123558 54.37767795 69.32093255 51.10668945 69.31567383 C46.91207802 69.30987946 42.71790819 69.3268057 38.52336979 69.3500185 C35.30205191 69.36474118 32.08084072 69.36562954 28.85949516 69.36250877 C27.31291263 69.36302277 25.76632424 69.36827516 24.21977425 69.37832069 C22.05776301 69.39063936 19.89661624 69.38392183 17.73461914 69.37231445 C15.88834679 69.37325859 15.88834679 69.37325859 14.004776 69.3742218 C11 69 11 69 9.13182068 67.61198425 C7.71232821 65.59028634 7.13628076 63.76105285 6.5 61.375 C5.56999386 58.02016111 4.58682656 54.7237654 3.4375 51.4375 C-0.33459947 40.20019843 -1.17085903 29.10591432 -1.125 17.3125 C-1.12886719 16.30638672 -1.13273437 15.30027344 -1.13671875 14.26367188 C-1.13030483 9.39871571 -1.02619985 4.78078819 0 0 Z " fill="#E4E3E3" transform="translate(32,68)"/>
<path d="M0 0 C1.875 1.5625 1.875 1.5625 3 4 C3.1875 7.75 3.1875 7.75 3 11 C2.67 11 2.34 11 2 11 C1.505 8.525 1.505 8.525 1 6 C0.67 6 0.34 6 0 6 C-0.33 9.3 -0.66 12.6 -1 16 C-1.33 16 -1.66 16 -2 16 C-2 12.04 -2 8.08 -2 4 C-3.588125 4.61875 -5.17625 5.2375 -6.8125 5.875 C-7.70582031 6.22304688 -8.59914062 6.57109375 -9.51953125 6.9296875 C-12.17711591 7.98832155 -12.17711591 7.98832155 -15 10 C-15.22137393 12.62697064 -15.28162025 15.00893964 -15.1875 17.625 C-15.17396484 18.33140625 -15.16042969 19.0378125 -15.14648438 19.765625 C-15.1111104 21.51074128 -15.05730221 23.25546608 -15 25 C-15.99 24.67 -16.98 24.34 -18 24 C-18.33 20.37 -18.66 16.74 -19 13 C-19.99 13.495 -19.99 13.495 -21 14 C-21.76746598 26.10890775 -19.61048751 37.53111624 -17.45751953 49.39794922 C-16.89608471 52.59099742 -16.42933204 55.78678866 -16 59 C-17.485 58.505 -17.485 58.505 -19 58 C-21.85390446 50.54813835 -22.53843258 41.92814005 -23.6875 34.0625 C-23.81898437 33.16305664 -23.95046875 32.26361328 -24.0859375 31.33691406 C-24.70891048 26.85385313 -25.15704716 22.53941085 -25 18 C-25.99 18.66 -26.98 19.32 -28 20 C-28.59146225 27.41602666 -27.31644076 34.56580671 -26.125 41.875 C-25.95097656 42.98230469 -25.77695312 44.08960938 -25.59765625 45.23046875 C-24.4964422 52.17219581 -23.28886802 59.0907654 -22 66 C-23.485 65.505 -23.485 65.505 -25 65 C-29.83377945 52.47127017 -30.56173592 38.22937839 -32 25 C-36.61656009 31.92484014 -33.54925501 42.022659 -32.125 49.75 C-31.95097656 50.75160156 -31.77695312 51.75320312 -31.59765625 52.78515625 C-30.71935331 57.69714676 -29.61033396 62.27055071 -28 67 C-28 68.32 -28 69.64 -28 71 C-28.99 71 -29.98 71 -31 71 C-33.3313153 64.56821523 -34.6135408 58.04667249 -35.6875 51.3125 C-35.81874268 50.50514404 -35.94998535 49.69778809 -36.08520508 48.8659668 C-36.80180927 44.1852101 -37.13309231 39.73428376 -37 35 C-37.99 35.495 -37.99 35.495 -39 36 C-39.41990973 46.82433972 -38.30386053 56.42372836 -36 67 C-35.66370837 68.66607228 -35.32903196 70.33247883 -35 72 C-35.99 71.67 -36.98 71.34 -38 71 C-40.58408297 63.67843158 -41.4946192 55.72012745 -42 48 C-42.66 48 -43.32 48 -44 48 C-44.33 48.99 -44.66 49.98 -45 51 C-45.33 49.35 -45.66 47.7 -46 46 C-46.99 46.495 -46.99 46.495 -48 47 C-45.08581499 35.21544481 -39.46217277 24.78617488 -31 16 C-30.34 16 -29.68 16 -29 16 C-28.67 15.01 -28.34 14.02 -28 13 C-20.70869871 6.68698652 -9.96637751 -0.93170101 0 0 Z " fill="#716C61" transform="translate(78,15)"/>
<path d="M0 0 C4.08768634 3.87136718 7.42134281 8.03051779 10.75 12.5625 C11.80337312 13.98177996 12.85675867 15.40105069 13.91015625 16.8203125 C14.42852051 17.52188477 14.94688477 18.22345703 15.48095703 18.94628906 C17.70444586 21.9523945 19.94488536 24.9456524 22.1875 27.9375 C23.26064453 29.37416016 23.26064453 29.37416016 24.35546875 30.83984375 C25.82281854 32.86758385 25.82281854 32.86758385 27 34 C27.125 36.5 27.125 36.5 27 39 C26 40 26 40 23.49975586 40.11352539 C22.41573486 40.10828857 21.33171387 40.10305176 20.21484375 40.09765625 C18.46010742 40.09282227 18.46010742 40.09282227 16.66992188 40.08789062 C14.82237305 40.07532227 14.82237305 40.07532227 12.9375 40.0625 C11.08415039 40.05573242 11.08415039 40.05573242 9.19335938 40.04882812 C6.12885883 40.03699608 3.06445279 40.02051173 0 40 C0.32484375 39.04351562 0.6496875 38.08703125 0.984375 37.1015625 C2.28605981 32.52266772 2.30063786 28.10783151 2.25 23.375 C2.24613281 22.50069336 2.24226563 21.62638672 2.23828125 20.72558594 C2.14486195 13.66983398 1.41494953 6.92314594 0 0 Z " fill="#E9E9E9" transform="translate(88,96)"/>
<path d="M0 0 C0.33 0 0.66 0 1 0 C1 3.63 1 7.26 1 11 C-0.98 11.99 -0.98 11.99 -3 13 C-4.44197868 14.44197868 -5.11786244 16.17691571 -6 18 C-8.64 18 -11.28 18 -14 18 C-14 17.01 -14 16.02 -14 15 C-21.26 15 -28.52 15 -36 15 C-32.57740779 10.72175974 -30.12691374 7.76428302 -25 6 C-20.72010303 5.61156343 -16.48164687 6.00032608 -12.20703125 6.33203125 C-7.43065357 6.67845004 -7.43065357 6.67845004 -3.30566406 4.65527344 C-1.76389177 2.83199621 -1.76389177 2.83199621 0 0 Z " fill="#E9E8E8" transform="translate(114,63)"/>
<path d="M0 0 C0.66 0.33 1.32 0.66 2 1 C2.38583479 3.63959993 2.65911707 6.22016387 2.875 8.875 C3.67555045 17.34542306 5.23333905 25.4997236 7.09765625 33.79296875 C7.92796443 37.51448309 8.51418684 41.21867076 9 45 C8.01 45 7.02 45 6 45 C3.6686847 38.56821523 2.3864592 32.04667249 1.3125 25.3125 C1.18125732 24.50514404 1.05001465 23.69778809 0.91479492 22.8659668 C0.19819073 18.1852101 -0.13309231 13.73428376 0 9 C-0.99 9.495 -0.99 9.495 -2 10 C-2.41990973 20.82433972 -1.30386053 30.42372836 1 41 C1.33629163 42.66607228 1.67096804 44.33247883 2 46 C1.01 45.67 0.02 45.34 -1 45 C-3.58408297 37.67843158 -4.4946192 29.72012745 -5 22 C-5.66 22 -6.32 22 -7 22 C-7.33 22.99 -7.66 23.98 -8 25 C-8.33 23.35 -8.66 21.7 -9 20 C-9.66 20.33 -10.32 20.66 -11 21 C-6.8057554 5.4940048 -6.8057554 5.4940048 -1.75 1 C-0.88375 0.505 -0.88375 0.505 0 0 Z " fill="#706A5F" transform="translate(41,41)"/>
<path d="M0 0 C2.5 0.5 2.5 0.5 4.875 2.0625 C6.5 4.5 6.5 4.5 6.4375 8.125 C5.5 11.5 5.5 11.5 2.5 13.5 C-1.0625 13.3125 -1.0625 13.3125 -4.5 12.5 C-6.66551116 9.25173326 -7.05156953 8.26905843 -6.5 4.5 C-4.50600369 1.76748653 -3.3376027 0.66752054 0 0 Z " fill="#B2AFA9" transform="translate(82.5,34.5)"/>
<path d="M0 0 C0.33 0 0.66 0 1 0 C1.14099121 0.97235596 1.28198242 1.94471191 1.42724609 2.9465332 C1.95830912 6.60535126 2.49197433 10.26378608 3.02636719 13.92211914 C3.25590199 15.49591136 3.48476086 17.06980233 3.71289062 18.64379883 C4.99111547 27.45962588 6.30756533 36.25176447 8 45 C7.01 44.67 6.02 44.34 5 44 C4.14165789 41.57159438 3.4999336 39.31182151 2.9375 36.8125 C2.76831055 36.09288086 2.59912109 35.37326172 2.42480469 34.63183594 C-3.76018478 7.52036957 -3.76018478 7.52036957 0 0 Z " fill="#B2AFA9" transform="translate(48,36)"/>
<path d="M0 0 C0.33 0 0.66 0 1 0 C1.10546143 0.76030518 1.21092285 1.52061035 1.31958008 2.30395508 C1.80987879 5.80787499 2.31112231 9.31014891 2.8125 12.8125 C2.97814453 14.00810547 3.14378906 15.20371094 3.31445312 16.43554688 C4.26595328 23.0242366 5.4738008 29.33143103 7.4206543 35.7019043 C8 38 8 38 8 42 C7.01 42 6.02 42 5 42 C2.6686847 35.56821523 1.3864592 29.04667249 0.3125 22.3125 C0.18125732 21.50514404 0.05001465 20.69778809 -0.08520508 19.8659668 C-0.80180927 15.1852101 -1.13309231 10.73428376 -1 6 C-1.66 5.67 -2.32 5.34 -3 5 C-2.03114628 3.31503702 -1.03013277 1.64821244 0 0 Z " fill="#AEABA5" transform="translate(42,44)"/>
<path d="M0 0 C0.14695312 1.92585938 0.14695312 1.92585938 0.296875 3.890625 C1.28472324 15.86571832 3.02808342 27.43392349 5.66455078 39.15673828 C6 41 6 41 6 44 C5.01 43.67 4.02 43.34 3 43 C-0.15886684 34.23421081 -0.94603781 24.38011691 -2.1875 15.1875 C-2.36474609 13.91068359 -2.54199219 12.63386719 -2.72460938 11.31835938 C-3.15495146 8.21291782 -3.57999878 5.10685398 -4 2 C-1 0 -1 0 0 0 Z " fill="#ADABA4" transform="translate(56,30)"/>
<path d="M0 0 C0.33 0 0.66 0 1 0 C1.10957031 1.14855469 1.21914063 2.29710937 1.33203125 3.48046875 C2.18727298 11.99886026 3.27218518 20.19366829 5.4140625 28.49609375 C6 31 6 31 6 34 C5.01 33.67 4.02 33.34 3 33 C0.41591703 25.67843158 -0.4946192 17.72012745 -1 10 C-1.66 10 -2.32 10 -3 10 C-2.01 6.7 -1.02 3.4 0 0 Z " fill="#AFACA6" transform="translate(37,53)"/>
<path d="M0 0 C2.5625 0.1875 2.5625 0.1875 4.5625 2.1875 C4.00694444 6.74305556 4.00694444 6.74305556 2.5625 8.1875 C0.0625 8.3125 0.0625 8.3125 -2.4375 8.1875 C-3.4375 7.1875 -3.4375 7.1875 -3.5625 4.1875 C-3.39891479 0.26145498 -3.39891479 0.26145498 0 0 Z " fill="#F7F6F6" transform="translate(82.4375,37.8125)"/>
<path d="M0 0 C0.33 0 0.66 0 1 0 C2.03026944 6.69675136 2.10152799 13.2314676 2 20 C-0.81439095 15.77841358 -1.13708607 12.91091724 -1.125 7.9375 C-1.12757812 6.87402344 -1.13015625 5.81054688 -1.1328125 4.71484375 C-1 2 -1 2 0 0 Z " fill="#AEABA4" transform="translate(48,36)"/>
<path d="M0 0 C0.99 0 1.98 0 3 0 C3.33 4.62 3.66 9.24 4 14 C3.01 13.67 2.02 13.34 1 13 C0.63901937 11.02206479 0.28638652 9.04260427 -0.0625 7.0625 C-0.25972656 5.96035156 -0.45695312 4.85820312 -0.66015625 3.72265625 C-0.77230469 2.82417969 -0.88445313 1.92570312 -1 1 C-0.67 0.67 -0.34 0.34 0 0 Z " fill="#B2AFA9" transform="translate(59,26)"/>
<path d="M0 0 C0.09945415 6.11090483 0.0712828 11.97403427 -1 18 C-1.33 18 -1.66 18 -2 18 C-2.66 12.72 -3.32 7.44 -4 2 C-1 0 -1 0 0 0 Z " fill="#B6B4AE" transform="translate(56,30)"/>
<path d="M0 0 C0.33 0 0.66 0 1 0 C1.50636607 1.74816858 2.00484619 3.49862263 2.5 5.25 C2.7784375 6.22453125 3.056875 7.1990625 3.34375 8.203125 C4 11 4 11 4 15 C3.01 15 2.02 15 1 15 C0.63355422 13.44033408 0.28239138 11.87707349 -0.0625 10.3125 C-0.25972656 9.44238281 -0.45695312 8.57226562 -0.66015625 7.67578125 C-1.02032279 4.83998724 -0.70909969 2.75210018 0 0 Z " fill="#BAB8B3" transform="translate(46,71)"/>
<path d="M0 0 C0.33 0 0.66 0 1 0 C1.38063221 2.3260857 1.71269945 4.66055264 2 7 C1.67 7.33 1.34 7.66 1 8 C0.84313751 9.55948542 0.74923361 11.12542668 0.68359375 12.69140625 C0.62075195 14.10776367 0.62075195 14.10776367 0.55664062 15.55273438 C0.51732422 16.54595703 0.47800781 17.53917969 0.4375 18.5625 C0.39431641 19.55958984 0.35113281 20.55667969 0.30664062 21.58398438 C0.20019702 24.0558415 0.09818072 26.5278031 0 29 C-0.33 29 -0.66 29 -1 29 C-1.02918874 25.29168337 -1.04686218 21.58339658 -1.0625 17.875 C-1.07087891 16.82828125 -1.07925781 15.7815625 -1.08789062 14.703125 C-1.10375207 9.6909095 -1.08177213 4.92334088 0 0 Z " fill="#C1BFBB" transform="translate(32,68)"/>
<path d="M0 0 C0.33 1.32 0.66 2.64 1 4 C-0.98 4 -2.96 4 -5 4 C-5.33 5.65 -5.66 7.3 -6 9 C-6.33 9 -6.66 9 -7 9 C-8.33157895 3.55263158 -8.33157895 3.55263158 -6.875 1.125 C-4.46277487 -0.32233508 -2.7648665 -0.22417836 0 0 Z " fill="#BBB9B3" transform="translate(85,35)"/>
<path d="M0 0 C1.98 0 3.96 0 6 0 C6 2 6 2 3.625 4.5625 C1 7 1 7 -1 8 C-3.3400417 7.71758117 -5.67504723 7.38749213 -8 7 C-8 6.67 -8 6.34 -8 6 C-5.36 5.67 -2.72 5.34 0 5 C0 3.68 0 2.36 0 1 C0 0.67 0 0.34 0 0 Z " fill="#89847C" transform="translate(108,75)"/>
<path d="M0 0 C0.33 0 0.66 0 1 0 C1.25002209 1.74714233 1.47423194 3.49799141 1.6875 5.25 C1.87892578 6.71179687 1.87892578 6.71179687 2.07421875 8.203125 C1.9871902 11.48272731 1.19219402 12.63310671 -1 15 C-1.22304441 13.25181409 -1.4278645 11.50129677 -1.625 9.75 C-1.74101563 8.77546875 -1.85703125 7.8009375 -1.9765625 6.796875 C-2.00112537 3.86570607 -1.5312717 2.45471036 0 0 Z " fill="#C8C5C1" transform="translate(50,49)"/>
<path d="M0 0 C0.33 0 0.66 0 1 0 C1.66 3.63 2.32 7.26 3 11 C2.01 10.67 1.02 10.34 0 10 C-0.74926071 6.33694766 -1.2380014 3.57644848 0 0 Z " fill="#B5B2AD" transform="translate(40,76)"/>
<path d="M0 0 C0.33 0 0.66 0 1 0 C0.67 4.29 0.34 8.58 0 13 C-0.33 13 -0.66 13 -1 13 C-1 10.69 -1 8.38 -1 6 C-1.66 5.67 -2.32 5.34 -3 5 C-2.03114628 3.31503702 -1.03013277 1.64821244 0 0 Z " fill="#B5B2AC" transform="translate(42,44)"/>
</svg>
