<?xml version="1.0" encoding="UTF-8"?>
<svg version="1.1" xmlns="http://www.w3.org/2000/svg" width="150" height="150">
<path d="M0 0 C6.34468857 5.80559739 9.11973845 11.77662878 9.5 20.3125 C9.29333027 29.29229963 5.58263933 35.22448902 0 42 C0.9384375 42.49628906 1.876875 42.99257812 2.84375 43.50390625 C4.06327903 44.1887187 5.28198745 44.87499395 6.5 45.5625 C7.12003906 45.88541016 7.74007812 46.20832031 8.37890625 46.54101562 C10.15625 47.56640625 10.15625 47.56640625 13 50 C13.63688796 54.84034848 12.76244785 58.48372738 11 63 C7.37 63 3.74 63 0 63 C4.41513894 70.72294399 9.10823534 76.39956395 16 82 C16.66 82.66 17.32 83.32 18 84 C17.34 86.31 16.68 88.62 16 91 C17.65 91.66 19.3 92.32 21 93 C21.1080023 95.10304477 21.18558987 97.20766909 21.25 99.3125 C21.29640625 100.48425781 21.3428125 101.65601563 21.390625 102.86328125 C21 106 21 106 19.39013672 107.67178345 C16.23741564 109.42377373 13.96892922 109.38094173 10.3671875 109.38818359 C9.70978577 109.39344055 9.05238403 109.39869751 8.37506104 109.40411377 C6.2081303 109.41728708 4.04193784 109.40858585 1.875 109.3984375 C0.36572123 109.40045902 -1.1435566 109.40337111 -2.65283203 109.40713501 C-5.81357131 109.41155472 -8.97405598 109.4051389 -12.13476562 109.39111328 C-16.18352526 109.37402132 -20.23168827 109.38386443 -24.28042603 109.40183067 C-27.39628585 109.41267821 -30.51200454 109.40921778 -33.62786865 109.4014473 C-35.12058584 109.39944796 -36.61331591 109.40189523 -38.10601807 109.40888596 C-40.19341915 109.41651674 -42.27985797 109.40487507 -44.3671875 109.38818359 C-45.55425293 109.38579681 -46.74131836 109.38341003 -47.96435547 109.38095093 C-51.2795791 108.96491489 -52.69545518 108.39318452 -55 106 C-55.390625 102.86328125 -55.390625 102.86328125 -55.25 99.3125 C-55.21390625 98.13300781 -55.1778125 96.95351562 -55.140625 95.73828125 C-55.09421875 94.83464844 -55.0478125 93.93101563 -55 93 C-52.525 92.01 -52.525 92.01 -50 91 C-50.66 88.36 -51.32 85.72 -52 83 C-51.03900391 82.30777344 -51.03900391 82.30777344 -50.05859375 81.6015625 C-43.16414831 76.40247249 -37.88799509 70.77599018 -34 63 C-37.96 63 -41.92 63 -46 63 C-46.66 58.71 -47.32 54.42 -48 50 C-43.38 47.36 -38.76 44.72 -34 42 C-34.928125 40.824375 -35.85625 39.64875 -36.8125 38.4375 C-42.61695014 30.56101211 -44.21353203 23.73137115 -43 14 C-40.39777268 5.55721804 -35.38131605 0.64704511 -28 -3.8125 C-18.05573789 -7.74877042 -8.51791208 -6.22401108 0 0 Z " fill="#746E63" transform="translate(92,32)"/>
<path d="M0 0 C5.85321818 2.68086329 8.80909869 6.7357972 12.359375 12 C14.55353711 18.12055746 14.65767484 24.6215982 11.984375 30.625 C9.47909743 34.69888214 6.70436074 37.87619735 2.546875 40.3125 C-1.1286453 41.18448105 -4.62696568 41.19869758 -8.390625 41.125 C-9.81665039 41.17237305 -9.81665039 41.17237305 -11.27148438 41.22070312 C-17.81129216 41.1891534 -21.22020191 39.69718433 -25.89672852 35.13256836 C-30.28829012 29.99702455 -31.0650287 24.64049503 -30.8671875 18.09375 C-29.97406179 12.09464147 -26.92353569 7.33120449 -22.390625 3.375 C-15.51182162 -1.45479812 -8.22771288 -2.30585584 0 0 Z " fill="#FDFDFD" transform="translate(83.453125,31.6875)"/>
<path d="M0 0 C7.92 0 15.84 0 24 0 C26.475 4.95 26.475 4.95 29 10 C32.43981051 14.68719166 32.43981051 14.68719166 37 18 C37 18.66 37 19.32 37 20 C37.639375 20.268125 38.27875 20.53625 38.9375 20.8125 C41 22 41 22 42 25 C41.67 26.32 41.34 27.64 41 29 C21.86 29 2.72 29 -17 29 C-18 23 -18 23 -16.6875 21.125 C-15 20 -15 20 -13 20 C-13 19.34 -13 18.68 -13 18 C-12.34 18 -11.68 18 -11 18 C-10.6596875 17.195625 -10.6596875 17.195625 -10.3125 16.375 C-9 14 -9 14 -6.625 11.25 C-3.37471725 7.46308757 -3.37471725 7.46308757 0 0 Z " fill="#FDFDFD" transform="translate(63,94)"/>
<path d="M0 0 C1.38302412 0.73315012 2.74907282 1.49946477 4.09375 2.30078125 C4.73086914 2.67058105 5.36798828 3.04038086 6.02441406 3.42138672 C7.765625 4.5859375 7.765625 4.5859375 10.34375 7.23828125 C10.34375 9.54828125 10.34375 11.85828125 10.34375 14.23828125 C-6.15625 14.23828125 -22.65625 14.23828125 -39.65625 14.23828125 C-39.98625 11.92828125 -40.31625 9.61828125 -40.65625 7.23828125 C-38.55437468 5.92198558 -36.44993324 4.61015128 -34.34375 3.30078125 C-33.45139648 2.74100586 -33.45139648 2.74100586 -32.54101562 2.16992188 C-23.35270967 -3.52785444 -10.02959719 -4.39883158 0 0 Z " fill="#E5E5E5" transform="translate(89.65625,76.76171875)"/>
<path d="M0 0 C22.44 0 44.88 0 68 0 C68 2.97 68 5.94 68 9 C45.56 9 23.12 9 0 9 C0 6.03 0 3.06 0 0 Z " fill="#FCFCFC" transform="translate(41,127)"/>
<path d="M0 0 C7.86171589 3.11623936 12.59309922 7.98849869 16.875 15.125 C19.18729605 21.32362494 19.13355338 28.67580974 17.015625 34.88671875 C14.83213778 39.39521552 12.18527239 43.13411386 9 47 C9.9384375 47.49628906 10.876875 47.99257812 11.84375 48.50390625 C13.06327903 49.1887187 14.28198745 49.87499395 15.5 50.5625 C16.12003906 50.88541016 16.74007812 51.20832031 17.37890625 51.54101562 C19.15625 52.56640625 19.15625 52.56640625 22 55 C22.40625 58.77734375 22.40625 58.77734375 22 62 C19.525 62.99 19.525 62.99 17 64 C16.95617187 62.93523437 16.91234375 61.87046875 16.8671875 60.7734375 C16.33584228 56.88564083 16.33584228 56.88564083 13.5078125 54.6015625 C3.37618816 48.68169886 -5.36116992 47.80146985 -17 48 C-17 47.67 -17 47.34 -17 47 C-11.555 46.505 -11.555 46.505 -6 46 C-6 45.67 -6 45.34 -6 45 C-5.43152344 44.99742188 -4.86304687 44.99484375 -4.27734375 44.9921875 C1.25558102 44.71507941 4.57421216 43.6330818 8.55859375 39.72265625 C12.83542594 34.61132022 13.61421147 29.2400412 13.41015625 22.78125 C12.53196164 16.82625419 9.55988523 11.96285071 5 8.0625 C-0.01373655 4.82422917 -6.19452389 4.58491263 -12 4 C-12.33 3.01 -12.66 2.02 -13 1 C-8.46216632 -1.62072642 -4.98548967 -1.22240372 0 0 Z " fill="#726C62" transform="translate(83,27)"/>
<path d="M0 0 C0.99 0.495 0.99 0.495 2 1 C1.01 1.495 1.01 1.495 0 2 C0 1.34 0 0.68 0 0 Z M-2 2 C-1.34 2.33 -0.68 2.66 0 3 C-0.33 3.33 -0.66 3.66 -1 4 C17.15 4 35.3 4 54 4 C55 7 55 7 54 11 C34.86 11 15.72 11 -4 11 C-4.33 9.02 -4.66 7.04 -5 5 C-3.5625 3.125 -3.5625 3.125 -2 2 Z " fill="#EBEBEB" transform="translate(50,112)"/>
<path d="M0 0 C7.92 0 15.84 0 24 0 C24.66 1.98 25.32 3.96 26 6 C-6.71615721 18 -6.71615721 18 -11 18 C-9.85242546 15.28755109 -8.57458503 13.50741425 -6.625 11.25 C-3.37471725 7.46308757 -3.37471725 7.46308757 0 0 Z " fill="#E7E7E7" transform="translate(63,94)"/>
<path d="M0 0 C3.65845737 1.65111063 6.96966142 3.69213104 10.00048828 6.31884766 C10.00048828 6.97884766 10.00048828 7.63884766 10.00048828 8.31884766 C-2.53951172 8.31884766 -15.07951172 8.31884766 -27.99951172 8.31884766 C-26.79655394 4.70997431 -25.59438256 2.9802807 -22.67138672 0.57666016 C-16.08431327 -2.52427208 -6.84440335 -2.33160993 0 0 Z " fill="#FCFCFC" transform="translate(88.99951171875,76.68115234375)"/>
<path d="M0 0 C0.33 0 0.66 0 1 0 C1.08636719 1.03898437 1.17273437 2.07796875 1.26171875 3.1484375 C2.22458445 13.23733216 3.75322016 21.92011431 11 29.5625 C15.84877404 33.39616322 22.07604832 32.9821836 28 33 C28 33.33 28 33.66 28 34 C24.50088305 34.20537903 21.00333334 34.32829941 17.5 34.4375 C16.51773438 34.49615234 15.53546875 34.55480469 14.5234375 34.61523438 C8.99074845 34.74433045 5.6928621 34.34517547 1.40625 30.67578125 C-3.39512492 25.93285238 -5.1272001 21.31675822 -5.5 14.625 C-5.37063539 8.77933647 -3.27705383 4.74002428 0 0 Z " fill="#E6E6E5" transform="translate(58,38)"/>
<path d="M0 0 C4.5217215 4.19874139 8.22293625 9.02260376 10 15 C9.67 15.99 9.34 16.98 9 18 C9 17.34 9 16.68 9 16 C8.01 15.67 7.02 15.34 6 15 C4.24609375 13.109375 4.24609375 13.109375 2.4375 10.75 C1.83808594 9.98171875 1.23867187 9.2134375 0.62109375 8.421875 C-0.99204471 6.01188502 -2.02910711 3.72429647 -3 1 C-2.01 0.67 -1.02 0.34 0 0 Z " fill="#746C61" transform="translate(91,96)"/>
<path d="M0 0 C0.79921875 0.11085938 1.5984375 0.22171875 2.421875 0.3359375 C3.32679687 0.47902344 3.32679687 0.47902344 4.25 0.625 C4.25 1.615 4.25 2.605 4.25 3.625 C1.72524538 4.88737731 -0.06200466 4.72356404 -2.875 4.6875 C-3.78507812 4.67847656 -4.69515625 4.66945313 -5.6328125 4.66015625 C-6.33148438 4.64855469 -7.03015625 4.63695312 -7.75 4.625 C-8.08 3.635 -8.41 2.645 -8.75 1.625 C-5.5750906 -0.2828584 -3.64414789 -0.5359041 0 0 Z " fill="#7E786F" transform="translate(78.75,26.375)"/>
<path d="M0 0 C0.495 0.144375 0.99 0.28875 1.5 0.4375 C4.97752922 1.21994407 8.45955123 1.58694764 12 2 C12 2.33 12 2.66 12 3 C6.06 3.495 6.06 3.495 0 4 C0 2.68 0 1.36 0 0 Z " fill="#6B655A" transform="translate(67,27)"/>
<path d="M0 0 C0.36923077 5.41538462 0.36923077 5.41538462 -1.5 8.375 C-1.995 8.91125 -2.49 9.4475 -3 10 C-3.33 7.03 -3.66 4.06 -4 1 C-1 0 -1 0 0 0 Z " fill="#6A6756" transform="translate(49,85)"/>
</svg>
