<?xml version="1.0" encoding="UTF-8"?>
<svg version="1.1" xmlns="http://www.w3.org/2000/svg" width="150" height="150">
<path d="M0 0 C3.72005698 2.99671257 5.99328021 5.62562776 6.56640625 10.5078125 C6.65983889 15.17944461 6.65810572 18.70908785 4.25 22.8125 C4.89066406 23.1528125 5.53132813 23.493125 6.19140625 23.84375 C13.36474707 27.86338659 19.60461108 32.28768047 22.5 40.25 C23.0775 41.095625 23.655 41.94125 24.25 42.8125 C26.57264069 42.94344937 26.57264069 42.94344937 29.25 42.8125 C32.37128151 42.88334351 34.42630933 43.10535738 36.83740234 45.17529297 C46.25 55.46023517 46.25 55.46023517 46.25 59.8125 C45.239375 60.245625 44.22875 60.67875 43.1875 61.125 C35.51119204 65.53810012 31.65615147 75.02386822 28.96875 83.09765625 C27.8665816 87.26073799 27.00817117 91.49182495 27.25 95.8125 C28.24 97.2975 28.24 97.2975 29.25 98.8125 C28.98294663 103.6194607 28.00005456 106.86676955 25.25 110.8125 C25.889375 111.10125 26.52875 111.39 27.1875 111.6875 C29.25 112.8125 29.25 112.8125 30.25 114.8125 C30.5234375 116.80078125 30.5234375 116.80078125 30.625 119.125 C30.67398438 119.88425781 30.72296875 120.64351563 30.7734375 121.42578125 C29.977025 125.05718449 28.07621826 126.47508439 25.25 128.8125 C22.09410095 129.43395996 22.09410095 129.43395996 18.50366211 129.42773438 C17.84611435 129.43328339 17.18856659 129.4388324 16.51109314 129.44454956 C14.34908951 129.45630986 12.189199 129.43211518 10.02734375 129.40625 C8.51949662 129.404538 7.01164651 129.40460549 5.50379944 129.40637207 C2.3488403 129.40472099 -0.80540641 129.38606147 -3.96020508 129.35449219 C-8.00114039 129.31478034 -12.04114473 129.31045199 -16.0822382 129.31795502 C-19.19384773 129.32102626 -22.30524851 129.30889941 -25.41680717 129.29182434 C-26.90671924 129.28480143 -28.39665495 129.28166895 -29.88658333 129.28251648 C-31.96917524 129.28071592 -34.05065708 129.25931589 -36.13305664 129.23242188 C-37.90913048 129.21979309 -37.90913048 129.21979309 -39.72108459 129.20690918 C-43.02201509 128.77707965 -44.43499492 128.17343347 -46.75 125.8125 C-47.24609375 123 -47.24609375 123 -47.1875 119.8125 C-47.18621094 118.760625 -47.18492188 117.70875 -47.18359375 116.625 C-46.75 113.8125 -46.75 113.8125 -45.34765625 111.9375 C-43.75 110.8125 -43.75 110.8125 -41.75 110.8125 C-43.50454385 107.63015895 -43.50454385 107.63015895 -45.75 104.8125 C-45.98728814 98.28707627 -45.98728814 98.28707627 -44.75 95.8125 C-43.57381688 85.22685195 -48.53150008 74.15203866 -54.75 65.8125 C-57.53681834 63.1583873 -60.24223634 61.37150607 -63.75 59.8125 C-62.12921571 56.08381047 -59.77767716 53.23903322 -57.1875 50.125 C-55.97900391 48.66513672 -55.97900391 48.66513672 -54.74609375 47.17578125 C-52.75 44.8125 -52.75 44.8125 -51.75 43.8125 C-49.89712498 43.74023498 -48.04166122 43.7286878 -46.1875 43.75 C-45.17558594 43.75902344 -44.16367187 43.76804688 -43.12109375 43.77734375 C-41.94740234 43.79474609 -41.94740234 43.79474609 -40.75 43.8125 C-40.564375 42.9875 -40.37875 42.1625 -40.1875 41.3125 C-37.38273773 34.48351361 -31.69512064 29.07747785 -25.75 24.8125 C-22.875 24 -22.875 24 -20.75 23.8125 C-21.245 22.9875 -21.74 22.1625 -22.25 21.3125 C-24.52746012 15.99842638 -24.5426594 11.98188363 -22.5625 6.5625 C-16.97206638 -1.91953722 -9.05543416 -3.91030112 0 0 Z " fill="#797469" transform="translate(80.75,12.1875)"/>
<path d="M0 0 C0 1.32 0 2.64 0 4 C1.97536745 3.65213292 1.97536745 3.65213292 4 3 C4.33 2.34 4.66 1.68 5 1 C9.29 1 13.58 1 18 1 C18 1.99 18 2.98 18 4 C20.97 4 23.94 4 27 4 C27 3.01 27 2.02 27 1 C31.29 1 35.58 1 40 1 C40 1.99 40 2.98 40 4 C42.64 4 45.28 4 48 4 C48 3.01 48 2.02 48 1 C52.29 1 56.58 1 61 1 C61.495 2.485 61.495 2.485 62 4 C63.65 4 65.3 4 67 4 C67 3.01 67 2.02 67 1 C72.02072539 0.29533679 72.02072539 0.29533679 75 1 C77.76760928 3.35893427 79.89141364 6.04797909 82 9 C80.71937515 10.7074998 79.38232443 12.37373596 78 14 C77.34 14 76.68 14 76 14 C75.72929688 14.56332031 75.45859375 15.12664062 75.1796875 15.70703125 C74 18 74 18 72.6328125 20.19921875 C67.27150818 29.04675982 66.60856323 34.91360626 64 46 C43.87 46 23.74 46 3 46 C1.68 41.05 0.36 36.1 -1 31 C-5.887038 19.34351446 -5.887038 19.34351446 -15 11 C-13.35700103 2.4639594 -8.32893692 -1.00521652 0 0 Z " fill="#EAEAEA" transform="translate(39,60)"/>
<path d="M0 0 C3.72005698 2.99671257 5.99328021 5.62562776 6.56640625 10.5078125 C6.65983889 15.17944461 6.65810572 18.70908785 4.25 22.8125 C4.89066406 23.1528125 5.53132813 23.493125 6.19140625 23.84375 C12.51032764 27.3846061 19.60058798 31.55624121 21.8984375 38.87890625 C22.1875 40.8125 22.1875 40.8125 22.25 43.8125 C18.48699626 45.06683458 14.97789091 44.91945422 11.0625 44.875 C10.31291016 44.87048828 9.56332031 44.86597656 8.79101562 44.86132812 C6.94397617 44.84956354 5.09697787 44.83162865 3.25 44.8125 C3.25 45.8025 3.25 46.7925 3.25 47.8125 C2.59 47.8125 1.93 47.8125 1.25 47.8125 C1.25 46.8225 1.25 45.8325 1.25 44.8125 C-5.35 44.8125 -11.95 44.8125 -18.75 44.8125 C-19.08 45.8025 -19.41 46.7925 -19.75 47.8125 C-19.75 46.8225 -19.75 45.8325 -19.75 44.8125 C-25.36 44.8125 -30.97 44.8125 -36.75 44.8125 C-36.255 41.8425 -36.255 41.8425 -35.75 38.8125 C-37.235 39.3075 -37.235 39.3075 -38.75 39.8125 C-36.96232445 33.25768965 -31.62237107 28.72883607 -25.9375 25.375 C-22.75 23.8125 -22.75 23.8125 -20.75 23.8125 C-21.245 22.9875 -21.74 22.1625 -22.25 21.3125 C-24.52746012 15.99842638 -24.5426594 11.98188363 -22.5625 6.5625 C-16.97206638 -1.91953722 -9.05543416 -3.91030112 0 0 Z " fill="#706C60" transform="translate(80.75,12.1875)"/>
<path d="M0 0 C-0.78810547 4.52551285 -2.28524803 8.53330964 -3.96484375 12.79296875 C-5.35237134 17.09168629 -6.11412353 21.57061763 -7 26 C-25.15 26 -43.3 26 -62 26 C-50.89702458 11.19603277 -35.52490852 3.99700589 -17.4375 1.3125 C-16.63892578 1.18294922 -15.84035156 1.05339844 -15.01757812 0.91992188 C-9.95312119 0.13982215 -5.12294813 -0.12323243 0 0 Z " fill="#FEFEFE" transform="translate(110,80)"/>
<path d="M0 0 C0.33 0.99 0.66 1.98 1 3 C0.34 4.32 -0.32 5.64 -1 7 C11.54 7 24.08 7 37 7 C37 7.99 37 8.98 37 10 C37.66 10 38.32 10 39 10 C39 9.01 39 8.02 39 7 C40.10859375 6.96261719 41.2171875 6.92523438 42.359375 6.88671875 C43.82294974 6.82104552 45.28648991 6.75459865 46.75 6.6875 C47.47960937 6.66494141 48.20921875 6.64238281 48.9609375 6.61914062 C53.20570619 6.40690219 55.913858 6.02929201 59 3 C59.495 3.99 59.495 3.99 60 5 C61.6260287 4.93999894 63.25101549 4.8512115 64.875 4.75 C69.191724 5.00459054 71.31866451 5.98516166 74.17578125 9.10546875 C82 18.67034517 82 18.67034517 82 22 C80.989375 22.433125 79.97875 22.86625 78.9375 23.3125 C70.47088506 28.17994664 66.59070769 39.05787989 64 48 C63.64544151 49.66228071 63.30562872 51.32803111 63 53 C60.47275251 50.80239348 59.46499497 49.32559695 59 46 C61.2398911 35.8381411 67.19659937 25.85753389 75 19 C71.73810725 14.13722309 71.73810725 14.13722309 66.8203125 11.3125 C64.3928195 11.00047797 64.3928195 11.00047797 61 11 C61 11.99 61 12.98 61 14 C59.35 14 57.7 14 56 14 C55.505 13.01 55.505 13.01 55 12 C51.95418731 11.53045739 51.95418731 11.53045739 48.4375 11.375 C47.23996094 11.30023438 46.04242188 11.22546875 44.80859375 11.1484375 C43.88175781 11.09945312 42.95492187 11.05046875 42 11 C42 11.99 42 12.98 42 14 C39.36 14 36.72 14 34 14 C34 13.01 34 12.02 34 11 C29.71 11 25.42 11 21 11 C21 11.99 21 12.98 21 14 C18.03 14 15.06 14 12 14 C12 13.01 12 12.02 12 11 C7.71 11 3.42 11 -1 11 C-1.33 11.99 -1.66 12.98 -2 14 C-3.32 14 -4.64 14 -6 14 C-6 12.68 -6 11.36 -6 10 C-11.33887152 10.00736332 -11.33887152 10.00736332 -15.83203125 12.51953125 C-18.24242725 15.30526872 -19.82581695 17.47745086 -21 21 C-20.41089844 21.25007813 -19.82179688 21.50015625 -19.21484375 21.7578125 C-11.4519616 26.11159826 -7.65792066 35.97063297 -5 44 C-4.45698835 46.38925126 -4.16702072 48.55036272 -4 51 C-4.66 50.01 -5.32 49.02 -6 48 C-6.99 48.66 -7.98 49.32 -9 50 C-9.36351563 48.9378125 -9.72703125 47.875625 -10.1015625 46.78125 C-13.9151775 35.93648263 -17.11882985 27.22296167 -28 22 C-26.37921571 18.27131047 -24.02767716 15.42653322 -21.4375 12.3125 C-20.63183594 11.33925781 -19.82617188 10.36601563 -18.99609375 9.36328125 C-17 7 -17 7 -16 6 C-14.14712498 5.92773498 -12.29166122 5.9161878 -10.4375 5.9375 C-9.42558594 5.94652344 -8.41367187 5.95554687 -7.37109375 5.96484375 C-6.19740234 5.98224609 -6.19740234 5.98224609 -5 6 C-4.87753906 5.36578125 -4.75507812 4.7315625 -4.62890625 4.078125 C-4 2 -4 2 -1.9375 0.75 C-1.298125 0.5025 -0.65875 0.255 0 0 Z " fill="#777167" transform="translate(45,50)"/>
<path d="M0 0 C2.45104361 1.19737046 4.63724884 2.48524269 6.86328125 4.05859375 C7.45496094 4.4659375 8.04664063 4.87328125 8.65625 5.29296875 C12.23193159 8.01225253 14.66496153 11.16925886 16.86328125 15.05859375 C16.86328125 16.04859375 16.86328125 17.03859375 16.86328125 18.05859375 C11.58328125 18.05859375 6.30328125 18.05859375 0.86328125 18.05859375 C0.86328125 19.04859375 0.86328125 20.03859375 0.86328125 21.05859375 C0.20328125 21.05859375 -0.45671875 21.05859375 -1.13671875 21.05859375 C-1.13671875 20.06859375 -1.13671875 19.07859375 -1.13671875 18.05859375 C-7.73671875 18.05859375 -14.33671875 18.05859375 -21.13671875 18.05859375 C-21.46671875 19.04859375 -21.79671875 20.03859375 -22.13671875 21.05859375 C-22.13671875 20.06859375 -22.13671875 19.07859375 -22.13671875 18.05859375 C-27.74671875 18.05859375 -33.35671875 18.05859375 -39.13671875 18.05859375 C-32.6582165 1.86233811 -16.49034399 -4.94915679 0 0 Z " fill="#FCFCFC" transform="translate(83.13671875,38.94140625)"/>
<path d="M0 0 C22.44 0 44.88 0 68 0 C68 2.97 68 5.94 68 9 C45.56 9 23.12 9 0 9 C0 6.03 0 3.06 0 0 Z " fill="#FDFDFC" transform="translate(38,127)"/>
<path d="M0 0 C8.31000792 -0.04628625 16.61996221 -0.0818502 24.93006706 -0.10362434 C28.78854797 -0.11407343 32.64694085 -0.128253 36.50537109 -0.15087891 C40.22712192 -0.1725674 43.94878794 -0.18456014 47.67059708 -0.18975449 C49.09241191 -0.19345745 50.51422197 -0.20068819 51.93600082 -0.21146011 C53.92327114 -0.22592119 55.91062631 -0.22681646 57.89794922 -0.22705078 C59.03046112 -0.231492 60.16297302 -0.23593323 61.32980347 -0.24050903 C64 0 64 0 66 2 C65.46428571 5.53571429 65.46428571 5.53571429 64 7 C62.04719816 7.10450769 60.09059455 7.13855374 58.13500977 7.14526367 C56.88023331 7.15164352 55.62545685 7.15802338 54.33265686 7.16459656 C52.95224038 7.16612512 51.57182338 7.16723914 50.19140625 7.16796875 C48.78515081 7.17117967 47.37889571 7.17454362 45.97264099 7.17805481 C43.02105942 7.18405232 40.06950716 7.18589408 37.11791992 7.18530273 C33.33019954 7.18520109 29.54266653 7.19885285 25.75499058 7.21607494 C22.84941235 7.22717742 19.94387967 7.22922248 17.03828239 7.22869301 C15.64159436 7.2298758 14.24490524 7.23431421 12.84823799 7.24202538 C10.89697799 7.25178925 8.94566336 7.24769234 6.99438477 7.24291992 C5.32678856 7.24505745 5.32678856 7.24505745 3.62550354 7.24723816 C1 7 1 7 -1 5 C-0.625 2.375 -0.625 2.375 0 0 Z " fill="#F6F5F5" transform="translate(40,110)"/>
<path d="M0 0 C3.58552881 1.63687185 4.79315055 2.68972583 7 6 C7.436657 11.41454674 7.38281119 14.53468924 4 19 C2.06259347 20.93740653 -1.30159872 20.2625055 -3.875 20.3125 C-5.13054687 20.34988281 -6.38609375 20.38726562 -7.6796875 20.42578125 C-11 20 -11 20 -12.91015625 18.3203125 C-14.9473184 13.98312857 -14.83417013 9.66032237 -14 5 C-10.79762327 -0.48978868 -5.70354069 -0.72425913 0 0 Z " fill="#FCFCFC" transform="translate(76,15)"/>
<path d="M0 0 C0.80179688 0.00451172 1.60359375 0.00902344 2.4296875 0.01367188 C4.41149006 0.02546832 6.39325433 0.04340395 8.375 0.0625 C7.7871875 0.31902344 7.199375 0.57554688 6.59375 0.83984375 C-0.32588875 4.65295454 -3.9661225 11.92812063 -6.625 19.0625 C-7.615 19.0625 -8.605 19.0625 -9.625 19.0625 C-9.955 20.0525 -10.285 21.0425 -10.625 22.0625 C-10.625 21.0725 -10.625 20.0825 -10.625 19.0625 C-16.235 19.0625 -21.845 19.0625 -27.625 19.0625 C-22.70788437 6.76971094 -13.03810201 -0.13757738 0 0 Z " fill="#E8E8E8" transform="translate(71.625,37.9375)"/>
<path d="M0 0 C19.14 0 38.28 0 58 0 C58 0.99 58 1.98 58 3 C38.86 3 19.72 3 0 3 C0 2.01 0 1.02 0 0 Z " fill="#E3E3E2" transform="translate(43,120)"/>
<path d="M0 0 C4.29 0 8.58 0 13 0 C14 5 14 5 13 9 C8.38 9 3.76 9 -1 9 C-0.67 6.03 -0.34 3.06 0 0 Z " fill="#FEFEFE" transform="translate(66,61)"/>
<path d="M0 0 C3.96 0 7.92 0 12 0 C12.33 1.32 12.66 2.64 13 4 C13.99 4.33 14.98 4.66 16 5 C16 6.32 16 7.64 16 9 C11.38 9 6.76 9 2 9 C0 4 0 4 0 0 Z " fill="#FDFDFD" transform="translate(88,61)"/>
<path d="M0 0 C4.29 0 8.58 0 13 0 C12.01 2.97 11.02 5.94 10 9 C5.71 9 1.42 9 -3 9 C-2 4 -2 4 0 0 Z " fill="#FDFDFD" transform="translate(44,61)"/>
<path d="M0 0 C1.85625 0.1546875 1.85625 0.1546875 3.75 0.3125 C3.75 0.9725 3.75 1.6325 3.75 2.3125 C3.09 2.3125 2.43 2.3125 1.75 2.3125 C1.316875 3.488125 1.316875 3.488125 0.875 4.6875 C-0.25 7.3125 -0.25 7.3125 -2.25 9.3125 C-4.93839385 9.58241906 -7.54141936 9.39987357 -10.25 9.3125 C-7.96351572 4.16791038 -6.08014714 -0.01074231 0 0 Z " fill="#FAFAFA" transform="translate(34.25,60.6875)"/>
<path d="M0 0 C0.66 0.33 1.32 0.66 2 1 C1.34 1.66 0.68 2.32 0 3 C-2.5259532 6.7889298 -2.72262426 9.56342316 -2 14 C-1.34 15.65 -0.68 17.3 0 19 C3.63 19 7.26 19 11 19 C11 19.33 11 19.66 11 20 C8.73020335 20.10794277 6.45894804 20.18556176 4.1875 20.25 C2.92292969 20.29640625 1.65835938 20.3428125 0.35546875 20.390625 C-3 20 -3 20 -4.9140625 18.32421875 C-6.93220027 14.00482316 -6.88462481 9.63570829 -6 5 C-4.19965293 2.55779006 -2.64942062 1.60069163 0 0 Z " fill="#E4E3E3" transform="translate(68,15)"/>
<path d="M0 0 C3.0899819 -0.43368167 5.01837024 -0.70003481 8 0 C10.79521772 2.33544359 12.96197785 4.98754851 15 8 C15 8.33 15 8.66 15 9 C11.84005495 9.56879011 9.13414169 9.7797133 6 9 C3.40155657 6.30706772 1.6833009 3.32699471 0 0 Z " fill="#FBFBFB" transform="translate(106,61)"/>
<path d="M0 0 C1.9375 0.375 1.9375 0.375 4 1 C5.60725635 4.21451269 5.05748185 7.43612536 5 11 C3.35 11.33 1.7 11.66 0 12 C-0.19477739 10.37585622 -0.38059458 8.75063577 -0.5625 7.125 C-0.66691406 6.22007812 -0.77132812 5.31515625 -0.87890625 4.3828125 C-1 2 -1 2 0 0 Z " fill="#7A7567" transform="translate(106,124)"/>
<path d="M0 0 C0.66 0 1.32 0 2 0 C2.33 1.32 2.66 2.64 3 4 C2.46375 4.2475 1.9275 4.495 1.375 4.75 C-1.56424252 6.29696975 -4.25754408 8.13014369 -7 10 C-5.32598022 6.04322598 -2.86850715 3.15535787 0 0 Z " fill="#6D675C" transform="translate(28,57)"/>
</svg>
