<?xml version="1.0" encoding="UTF-8"?>
<svg version="1.1" xmlns="http://www.w3.org/2000/svg" width="150" height="150">
<path d="M0 0 C5.28 0 10.56 0 16 0 C16 1.98 16 3.96 16 6 C16.66 6 17.32 6 18 6 C18 4.02 18 2.04 18 0 C28.23 0 38.46 0 49 0 C49 1.65 49 3.3 49 5 C49.495 5.495 49.495 5.495 50 6 C50 4.02 50 2.04 50 0 C55.61 0 61.22 0 67 0 C67 10.23 67 20.46 67 31 C66.34 31 65.68 31 65 31 C65 32.65 65 34.3 65 36 C63.35 36.33 61.7 36.66 60 37 C59.5359375 38.4540625 59.5359375 38.4540625 59.0625 39.9375 C58 43 58 43 57 44 C56.09815263 53.59079996 58.00548896 62.68903872 60 72 C60.21269531 72.99644531 60.42539063 73.99289063 60.64453125 75.01953125 C61.08161991 77.01630319 61.53777934 79.0088956 62 81 C63.051875 80.896875 64.10375 80.79375 65.1875 80.6875 C69 81 69 81 72 83.0625 C74 86 74 86 74 89.625 C73.01711219 92.94224637 72.44813074 93.80466537 70 96 C70.56589844 96.20496094 71.13179688 96.40992187 71.71484375 96.62109375 C72.44832031 96.89050781 73.18179688 97.15992187 73.9375 97.4375 C74.66839844 97.70433594 75.39929688 97.97117187 76.15234375 98.24609375 C78 99 78 99 79 100 C79.17813354 102.12008116 79.26789228 104.24791612 79.3125 106.375 C79.36857422 108.11910156 79.36857422 108.11910156 79.42578125 109.8984375 C79 113 79 113 77.47973633 114.66859436 C74.0047254 116.53437706 70.7463121 116.4267016 66.8984375 116.40405273 C66.08497864 116.41091599 65.27151978 116.41777924 64.43341064 116.42485046 C61.74709575 116.44313763 59.06136373 116.4392787 56.375 116.43359375 C54.50699676 116.43815428 52.6389952 116.44345947 50.77099609 116.44947815 C46.85702699 116.45841275 42.94326189 116.45598175 39.02929688 116.44604492 C34.01193171 116.4345484 28.99526961 116.45477532 23.97799683 116.48396206 C20.12096683 116.50230059 16.2641061 116.50203641 12.40704346 116.49632454 C10.55705783 116.49617107 8.70706091 116.50223646 6.8571167 116.51461601 C4.2714819 116.52948201 1.68715611 116.51888247 -0.8984375 116.50170898 C-1.66323425 116.51137695 -2.42803101 116.52104492 -3.21600342 116.53100586 C-6.71053019 116.48236422 -8.6463654 116.26617421 -11.4753418 114.13685608 C-13.4185726 111.41335743 -13.50528736 109.75908059 -13.4375 106.4375 C-13.43621094 105.48746094 -13.43492188 104.53742188 -13.43359375 103.55859375 C-13 101 -13 101 -11.703125 99.203125 C-9.02567082 97.31171242 -6.19963405 97.30185227 -3 97 C-3 96.01 -3 95.02 -3 94 C-3.66 94 -4.32 94 -5 94 C-7 91 -7 91 -6.8125 87.5 C-6 84 -6 84 -4.875 82.125 C-2.08807587 80.45284552 0.81088697 80.40508364 4 80 C10.48295445 60.65349211 10.48295445 60.65349211 8.3125 41.1875 C6.10344 38.14257946 5.2628206 37.40816468 2 36 C2 34.35 2 32.7 2 31 C1.34 31 0.68 31 0 31 C0 20.77 0 10.54 0 0 Z " fill="#7B766C" transform="translate(41,25)"/>
<path d="M0 0 C5.28 0 10.56 0 16 0 C16 1.98 16 3.96 16 6 C16.66 6 17.32 6 18 6 C18 4.02 18 2.04 18 0 C28.23 0 38.46 0 49 0 C49 1.65 49 3.3 49 5 C49.495 5.495 49.495 5.495 50 6 C50 4.02 50 2.04 50 0 C55.61 0 61.22 0 67 0 C67 10.23 67 20.46 67 31 C66.34 31 65.68 31 65 31 C65 32.65 65 34.3 65 36 C62.525 36.495 62.525 36.495 60 37 C59.690625 37.969375 59.38125 38.93875 59.0625 39.9375 C58 43 58 43 57 44 C56.09815263 53.59079996 58.00548896 62.68903872 60 72 C60.21269531 72.99644531 60.42539063 73.99289063 60.64453125 75.01953125 C61.08161991 77.01630319 61.53777934 79.0088956 62 81 C62.9590625 81.185625 62.9590625 81.185625 63.9375 81.375 C64.618125 81.58125 65.29875 81.7875 66 82 C66.33 82.66 66.66 83.32 67 84 C44.89 84 22.78 84 0 84 C0 83.67 0 83.34 0 83 C2.31 83 4.62 83 7 83 C7.33 82.01 7.66 81.02 8 80 C8 80.66 8 81.32 8 82 C24.5 82 41 82 58 82 C55.525 74.08 55.525 74.08 53 66 C52 60 52 60 52 43 C39.79 43 27.58 43 15 43 C15 48.61 15 54.22 15 60 C14.11380803 64.1724872 13.29604087 67.99615944 12 72 C9.525 72.495 9.525 72.495 7 73 C7.09611572 72.3702124 7.19223145 71.7404248 7.29125977 71.09155273 C7.72532137 68.20831378 8.14401458 65.32303918 8.5625 62.4375 C8.71396484 61.44685547 8.86542969 60.45621094 9.02148438 59.43554688 C10.16339775 51.44215322 10.46600891 45.11253271 6 38 C3.94906855 36.59533047 3.94906855 36.59533047 2 36 C2 34.35 2 32.7 2 31 C1.34 31 0.68 31 0 31 C0 20.77 0 10.54 0 0 Z " fill="#6F6A5F" transform="translate(41,25)"/>
<path d="M0 0 C12.21 0 24.42 0 37 0 C37.495 8.415 37.495 8.415 38 17 C38.57688647 20.20171993 39.1459547 23.14944424 40 26.25 C40.35465799 27.63008217 40.70883795 29.01028728 41.0625 30.390625 C41.371875 31.58171875 41.68125 32.7728125 42 34 C42.495 36.475 42.495 36.475 43 39 C26.83 39 10.66 39 -6 39 C-5.28074712 33.96522986 -4.44639212 29.90022106 -3 25.125 C-0.4035018 15.63621787 -0.4035018 15.63621787 0 0 Z " fill="#FEFEFE" transform="translate(56,68)"/>
<path d="M0 0 C2.64 0 5.28 0 8 0 C8 1.98 8 3.96 8 6 C11.3 6 14.6 6 18 6 C18 4.02 18 2.04 18 0 C25.26 0 32.52 0 40 0 C40 1.98 40 3.96 40 6 C43.3 6 46.6 6 50 6 C50 4.02 50 2.04 50 0 C52.97 0 55.94 0 59 0 C59 7.59 59 15.18 59 23 C39.53 23 20.06 23 0 23 C0 15.41 0 7.82 0 0 Z " fill="#FAFAFA" transform="translate(45,29)"/>
<path d="M0 0 C0.77251602 0.00359528 1.54503204 0.00719055 2.34095764 0.01089478 C3.55549622 0.01067574 3.55549622 0.01067574 4.79457092 0.01045227 C7.48380671 0.01115163 10.17297412 0.01894507 12.86219788 0.02676392 C14.72164878 0.02862802 16.58110018 0.03005196 18.44055176 0.03105164 C23.34458258 0.03487746 28.24858398 0.04470829 33.15260315 0.05575562 C38.15280255 0.06596836 43.15300669 0.07054896 48.1532135 0.07559204 C57.97158583 0.0863305 67.78993629 0.10340769 77.60829163 0.12442017 C77.60829163 3.09442017 77.60829163 6.06442017 77.60829163 9.12442017 C49.88829163 9.12442017 22.16829163 9.12442017 -6.39170837 9.12442017 C-6.39170837 0.01255657 -6.39170837 0.01255657 0 0 Z " fill="#FCFCFC" transform="translate(38.39170837402344,126.87557983398438)"/>
<path d="M0 0 C12.21 0 24.42 0 37 0 C37 3.3 37 6.6 37 10 C36.67 10 36.34 10 36 10 C35.505 7.525 35.505 7.525 35 5 C26.76004442 6.92490765 19.8289583 9.75656256 15 17 C14.34 17 13.68 17 13 17 C12.7421875 17.53625 12.484375 18.0725 12.21875 18.625 C10.20171539 22.55563155 7.9006032 26.32101153 5.65625 30.125 C4.36058653 32.37407622 3.16078316 34.67843369 2 37 C21.8 37.495 21.8 37.495 42 38 C42.495 37.01 42.495 37.01 43 36 C43 36.99 43 37.98 43 39 C26.83 39 10.66 39 -6 39 C-5.28074712 33.96522986 -4.44639212 29.90022106 -3 25.125 C-0.4035018 15.63621787 -0.4035018 15.63621787 0 0 Z " fill="#E5E5E4" transform="translate(56,68)"/>
<path d="M0 0 C-1.875 4.875 -1.875 4.875 -3 6 C-3.33 8.64 -3.66 11.28 -4 14 C23.72 14 51.44 14 80 14 C79.505 9.545 79.505 9.545 79 5 C42.37 4.505 42.37 4.505 5 4 C5.33 3.34 5.66 2.68 6 2 C14.35404896 1.97677573 22.70808431 1.95903364 31.06215763 1.94818783 C34.94175931 1.94298101 38.82133881 1.93592353 42.70092773 1.92456055 C46.44863031 1.9136532 50.19631162 1.90770659 53.94402885 1.90512276 C55.37007418 1.90328261 56.79611841 1.89968936 58.22215462 1.89426994 C60.22759989 1.88695533 62.23306679 1.88659105 64.23852539 1.88647461 C65.37769913 1.884254 66.51687286 1.88203339 67.69056702 1.87974548 C71.18594445 2.00675664 74.5484267 2.44716571 78 3 C78 2.34 78 1.68 78 1 C82.875 1.875 82.875 1.875 84 3 C84.17813354 5.12008116 84.26789228 7.24791612 84.3125 9.375 C84.36857422 11.11910156 84.36857422 11.11910156 84.42578125 12.8984375 C84 16 84 16 82.47973633 17.66859436 C79.0047254 19.53437706 75.7463121 19.4267016 71.8984375 19.40405273 C71.08497864 19.41091599 70.27151978 19.41777924 69.43341064 19.42485046 C66.74709575 19.44313763 64.06136373 19.4392787 61.375 19.43359375 C59.50699676 19.43815428 57.6389952 19.44345947 55.77099609 19.44947815 C51.85702699 19.45841275 47.94326189 19.45598175 44.02929688 19.44604492 C39.01193171 19.4345484 33.99526961 19.45477532 28.97799683 19.48396206 C25.12096683 19.50230059 21.2641061 19.50203641 17.40704346 19.49632454 C15.55705783 19.49617107 13.70706091 19.50223646 11.8571167 19.51461601 C9.2714819 19.52948201 6.68715611 19.51888247 4.1015625 19.50170898 C2.95436737 19.51621094 2.95436737 19.51621094 1.78399658 19.53100586 C-1.71053019 19.48236422 -3.6463654 19.26617421 -6.4753418 17.13685608 C-8.4185726 14.41335743 -8.50528736 12.75908059 -8.4375 9.4375 C-8.43621094 8.48746094 -8.43492188 7.53742188 -8.43359375 6.55859375 C-7.93618135 3.62341248 -7.36800927 2.74396918 -5 1 C-2 0 -2 0 0 0 Z " fill="#756F63" transform="translate(36,122)"/>
<path d="M0 0 C1.00730415 -0.00262848 1.00730415 -0.00262848 2.03495789 -0.00531006 C4.26486765 -0.00972777 6.49469874 -0.00679089 8.72460938 -0.00341797 C10.26778173 -0.00409103 11.81095398 -0.00506108 13.35412598 -0.00631714 C16.59237678 -0.007794 19.83060005 -0.00563993 23.06884766 -0.00097656 C27.2287846 0.00472073 31.38865704 0.00144166 35.54859161 -0.00454903 C38.73635345 -0.00815496 41.92409989 -0.00701591 45.11186218 -0.00442123 C46.6461335 -0.00375205 48.1804062 -0.00458008 49.7146759 -0.00690079 C51.85539478 -0.00942784 53.9960078 -0.00558601 56.13671875 0 C57.96752991 0.00119339 57.96752991 0.00119339 59.83532715 0.00241089 C62.56835938 0.12939453 62.56835938 0.12939453 63.56835938 1.12939453 C63.69335938 3.62939453 63.69335938 3.62939453 63.56835938 6.12939453 C61.71128515 7.98646876 58.63375162 7.26689023 56.15258789 7.2746582 C55.14769318 7.27969612 55.14769318 7.27969612 54.12249756 7.28483582 C51.89740163 7.29437174 49.67238074 7.29629025 47.44726562 7.29736328 C45.90648873 7.30057406 44.36571215 7.30393799 42.82493591 7.30744934 C39.59088433 7.31344725 36.35685949 7.31528857 33.12280273 7.31469727 C28.97188417 7.31459561 24.82113655 7.32824807 20.67025852 7.34546947 C17.48674222 7.35656993 14.30326749 7.35861708 11.11973381 7.35808754 C9.58907418 7.35927061 8.05841358 7.36371056 6.5277729 7.37141991 C4.38956749 7.38118052 2.2517364 7.37835759 0.11352539 7.37231445 C-1.10479477 7.37373947 -2.32311493 7.37516449 -3.57835388 7.37663269 C-6.43164062 7.12939453 -6.43164062 7.12939453 -8.43164062 5.12939453 C-7.55976692 -0.62497192 -5.44062858 0.0035464 0 0 Z " fill="#F6F5F5" transform="translate(46.431640625,109.87060546875)"/>
<path d="M0 0 C18.15 0 36.3 0 55 0 C55 0.99 55 1.98 55 3 C54.401875 3.226875 53.80375 3.45375 53.1875 3.6875 C50.76959206 4.84285365 50.76959206 4.84285365 49.94921875 7.54052734 C48 10 48 10 46.13061523 10.47613525 C43.61666666 10.66458041 41.14597807 10.69260927 38.625 10.6640625 C37.70412598 10.66884613 36.78325195 10.67362976 35.83447266 10.67855835 C33.88767794 10.68196054 31.94082634 10.67273576 29.99414062 10.65185547 C27.0104257 10.62509351 24.03047261 10.65159147 21.046875 10.68359375 C19.15624168 10.68028971 17.2656107 10.67388359 15.375 10.6640625 C14.48119629 10.67418365 13.58739258 10.68430481 12.66650391 10.69473267 C10.33564097 10.65052333 8.25996781 10.57334414 6 10 C4.1015625 7.58349609 4.1015625 7.58349609 3 5 C2.01 4.34 1.02 3.68 0 3 C0 2.01 0 1.02 0 0 Z " fill="#E2E1E1" transform="translate(47,55)"/>
<path d="M0 0 C5.28 0 10.56 0 16 0 C15.67 1.32 15.34 2.64 15 4 C14.34 4 13.68 4 13 4 C13 5.65 13 7.3 13 9 C15.97 9 18.94 9 22 9 C22 9.33 22 9.66 22 10 C18.7 10 15.4 10 12 10 C12 8.02 12 6.04 12 4 C9.36 4 6.72 4 4 4 C4 11.59 4 19.18 4 27 C23.47 27 42.94 27 63 27 C63 27.33 63 27.66 63 28 C34.785 28.495 34.785 28.495 6 29 C5.67 30.32 5.34 31.64 5 33 C3.515 33.495 3.515 33.495 2 34 C2 33.01 2 32.02 2 31 C1.34 31 0.68 31 0 31 C0 20.77 0 10.54 0 0 Z " fill="#767166" transform="translate(41,25)"/>
<path d="M0 0 C20.79 0 41.58 0 63 0 C63 0.99 63 1.98 63 3 C42.21 3 21.42 3 0 3 C0 2.01 0 1.02 0 0 Z " fill="#E3E3E2" transform="translate(43,120)"/>
<path d="M0 0 C2.5654594 2.5654594 2.54046087 4.47686668 3 8 C3.639375 8.12375 4.27875 8.2475 4.9375 8.375 C5.618125 8.58125 6.29875 8.7875 7 9 C7.495 9.99 7.495 9.99 8 11 C-14.11 11 -36.22 11 -59 11 C-59 10.67 -59 10.34 -59 10 C-56.69 10 -54.38 10 -52 10 C-51.67 9.01 -51.34 8.02 -51 7 C-51 7.66 -51 8.32 -51 9 C-34.5 9 -18 9 -1 9 C-1.495 5.535 -1.495 5.535 -2 2 C-1.34 1.34 -0.68 0.68 0 0 Z " fill="#676157" transform="translate(100,98)"/>
</svg>
